<svg xmlns="http://www.w3.org/2000/svg" xmlns:xlink="http://www.w3.org/1999/xlink" id="Layer_1" x="0px" y="0px" viewBox="0 0 2000 68" style="enable-background:new 0 0 2000 68;" xml:space="preserve"><style type="text/css">	.st0{opacity:0.2;}	.st1{fill:#FFFFFF;}	.st2{fill:none;}	.st3{opacity:0.3;clip-path:url(#SVGID_00000183955119094689424550000005462624332820415896_);}	.st4{opacity:0.3;clip-path:url(#SVGID_00000060749275654695720810000017175741940629241507_);}	.st5{opacity:0.3;clip-path:url(#SVGID_00000008865315924714059420000011943652567143120016_);}</style><g class="st0">	<path d="M-357.7,60.8c0-15.5,0-31,0-46.6c798.2,0,1596.4,0,2394.7,0c0,15.5,0,31,0,46.6c-0.6-0.2-1.2-0.4-1.8-0.7  c-2.6-1.3-5.4-2.2-8.3-2.5c-1.9-0.1-3.7-0.3-5.6-0.6c-3.4-0.6-6.7-0.9-10.1-0.5c-8.1,1.1-16.3,0.6-24.4,0.9  c-4.3,0.2-8.6,0.3-12.9,0.4c-1.3,0-2.6,0-3.9,0c0.2-0.3,0.4-0.5,0.6-0.8c-2.2,0-4.3-0.1-6.4,0c-5.6,0.3-11.3,0.7-16.9,1.1  c-1.3,0.1-2.7,0.3-4,0.5c-3.2,0.4-6.3,1.2-9.5,1.2c-6.8,0-13.6-0.5-20.4-0.8c-4.9-0.2-9.7-0.3-14.6-0.6c-4.7-0.2-9.3-0.6-14-0.9  c-2.5-0.2-5.1-0.2-7.6-0.3c-3.9-0.1-7.9,0-11.8-0.1c-4.5-0.1-8.9-0.6-13.4-0.7c-3.5-0.1-7.1,0.1-10.6,0.1c-3.7,0-7.3-0.2-11-0.2  c-0.5,0-1,0.3-1.5,0.4c-0.4,0.2-0.9,0.5-1.3,0.5c-4.1-0.1-8.2-0.3-12.3-0.5c-2.2-0.1-4.3,0.2-6.5-0.1c-5.4-0.5-10.8-0.3-16.1,0.3  c-7.2,0.8-14.5,1.3-21.7,1.4c-3,0-6,0.3-9,0.4c-4.2,0.2-8.4,0.6-12.5,0.7c-6.5,0.1-12.9-0.2-19.4,0.1c-6.7,0.3-13.4,1.1-20,1.4  c-5.3,0.3-10.6,0.2-15.9,0.2c-2.8,0-5.7,0-8.5,0c-2.8,0-5.5,0.2-8.3,0.1c-4.9-0.2-9.8-0.5-14.7-0.6c-4-0.1-8,0-12,0  c-2.9,0-5.7-0.2-8.6-0.2c-4.2-0.1-8.4,0.1-12.6-0.2c-10.5-0.8-21-1.7-31.4-2.6c-3.1-0.3-6.2-0.6-9-2.1c-0.7-0.4-1.5-0.4-2.3-0.4  c-5.4,0.2-10.8,0.6-16.3,0.8c-1.6,0.1-3.1-0.1-4.4,1c-0.2,0.1-0.5,0.1-0.7,0.1c-7.2,0.2-14.4,0.4-21.5,0.6  c-1.8,0.1-3.5,0.2-5.3,0.3c-5.9,0.3-11.8,0.6-17.7,0.9c-3.2,0.2-6.4,0.4-9.7,0.7c-3.7,0.3-7.3,1.1-10.9,1  c-5.9-0.1-11.8-0.6-17.7-0.9c-3.4-0.2-6.7-0.6-10.1,0.1c-2.1,0.4-4.2,0-6.2-0.6c0.2-0.3,0.3-0.4,0.5-0.7c-0.7-0.1-1.3-0.3-1.9-0.3  c-6-0.3-11.9-0.6-17.9-0.8c-3.2-0.1-6.5,0-9.7-0.2c-4.3-0.1-8.6-0.5-12.9-0.6c-6.1-0.2-12.2-0.2-18.3-0.3c-0.8,0-1.5-0.2-2.3-0.2  c-1.4-0.1-2.8-0.2-4.2-0.2c-4.2-0.1-8.4-0.1-12.6-0.1c-4.6,0-9.2-0.4-13.7,0.6c-4.6,1-9.3,1.5-14,1.2c-4-0.2-8.1-0.2-12.1-0.3  c-1.7,0-3.4,0.3-5.1,0.2c-4.8-0.2-9.6-0.1-14.3,0.5c-0.4,0.1-0.8,0.4-1.2,0.6c-0.5,0.2-1,0.6-1.5,0.7c-2.7,0.2-5.5,0.4-8.2,0.5  c-4.5,0.1-9,0.5-13.4,0c-6.1-0.7-12.2-0.2-18.2,0.4c-3.1,0.3-6.2,1-9.2,1.1c-5.7,0.2-11.4,0.1-17,0.2c-0.4,0-0.8,0.1-1.2,0.2  c-0.7,0-1.4,0-2.2,0c-0.2-0.1-0.5-0.2-0.7-0.2c-3.8-0.1-7.5-0.2-11.3-0.4c-2.5-0.1-5-0.3-7.3-1.5c-2.2-1.2-4.6-1.8-7.1-2  c-2.6-0.2-5.1-0.6-7.7-0.9c-1.5-0.2-3.1-0.6-4.6-0.4c-7.4,0.8-14.8,1-22.2,1c-2,0-4,0.1-6,0.1c-3.5,0.1-7.1,0.1-10.6,0.2  c-1.9,0.1-3.8,0.2-6,0.4c0.5-0.5,0.6-0.7,0.9-1c-2.3,0-4.4-0.1-6.5,0c-5.7,0.3-11.3,0.7-16.9,1.1c-1.3,0.1-2.6,0.3-3.9,0.5  c-3.3,0.4-6.5,1.2-9.8,1.2c-6.7,0-13.5-0.5-20.2-0.8c-3.9-0.2-7.7-0.3-11.6-0.5c-5.1-0.3-10.1-0.6-15.2-0.9  c-3.3-0.2-6.6-0.3-9.9-0.4c-3.8-0.1-7.6,0-11.4-0.1c-4.5-0.2-9-0.6-13.5-0.7c-4.3-0.1-8.5,0.1-12.8,0.1c-2.9,0-5.7-0.2-8.6-0.2  c-0.5,0-1,0.2-1.6,0.4c-0.5,0.2-1,0.5-1.4,0.5c-4.1-0.1-8.1-0.3-12.2-0.5c-2.2-0.1-4.4,0.2-6.6-0.1c-5.3-0.5-10.6-0.3-15.9,0.2  c-7.3,0.8-14.6,1.3-22,1.4c-2.9,0-5.9,0.3-8.8,0.4c-4.5,0.2-8.9,0.6-13.4,0.7c-2.6,0.1-5.2-0.3-7.8-0.2c-7,0.2-14,0.5-21,1  c-8.7,0.6-17.4,1.3-26.2,0.9c-2.5-0.1-5-0.1-7.4-0.1c-5.1-0.1-10.3-0.1-15.4-0.2c-3.1,0-6.2-0.1-9.3-0.2c-3.3,0-6.6,0-10,0  c-3.1-0.1-6.3-0.2-9.4-0.3c-4.2-0.1-8.4,0.1-12.6-0.2c-10.5-0.8-21-1.7-31.4-2.6c-3.1-0.3-6.3-0.6-9.1-2.1  c-0.7-0.4-1.6-0.4-2.4-0.3c-5.4,0.2-10.8,0.5-16.3,0.7c-1.5,0-2.9-0.1-4.2,1c-0.2,0.1-0.5,0.1-0.7,0.1c-7.1,0.2-14.2,0.4-21.3,0.6  c-1.8,0.1-3.7,0.2-5.5,0.3c-5.9,0.3-11.9,0.6-17.8,0.9c-2.6,0.1-5.3,0.2-7.9,0.5c-3.8,0.4-7.7,1.3-11.5,1.2c-6.3,0-12.6-0.6-18.9-1  c-3.3-0.2-6.7-0.6-10,0.2c-2.1,0.4-4.2,0-6.2-0.6c0.2-0.3,0.3-0.5,0.6-1c-4.1-0.3-7.9-0.6-11.7-0.7c-5.9-0.2-11.9-0.1-17.8-0.3  c-4.3-0.1-8.6-0.5-12.9-0.6c-6.1-0.2-12.2-0.2-18.3-0.3c-0.8,0-1.5-0.2-2.3-0.2c-1.4-0.1-2.8-0.2-4.2-0.2  c-4.2-0.1-8.5-0.1-12.7-0.1c-4.5,0-9.1-0.4-13.6,0.6c-4.6,1-9.3,1.5-14,1.2c-4-0.2-8.1-0.2-12.1-0.3c-1.7,0-3.4,0.3-5.1,0.2  c-4.8-0.2-9.6-0.1-14.3,0.5c-0.4,0.1-0.8,0.4-1.2,0.6c-0.5,0.2-1,0.7-1.5,0.7c-2.7,0.2-5.5,0.4-8.2,0.5c-4.5,0.1-9,0.5-13.4,0  c-6.2-0.7-12.3-0.2-18.4,0.4c-3,0.3-6.1,1-9.1,1.1c-5.6,0.2-11.3,0.1-16.9,0.2c-0.5,0-0.9,0.2-1.4,0.2c-0.7,0-1.4,0-2.2,0  c-0.2-0.1-0.5-0.2-0.7-0.2c-3.8-0.1-7.5-0.2-11.3-0.4c-2.5-0.1-5-0.3-7.3-1.5c-2.2-1.2-4.6-1.8-7.1-2c-2.6-0.2-5.1-0.6-7.7-0.9  c-1.5-0.2-3.1-0.6-4.6-0.4c-7.4,0.8-14.8,1-22.2,1c-2,0-4,0.1-6,0.1c-3.5,0.1-7.1,0.1-10.6,0.2c-1.9,0.1-3.8,0.2-6,0.4  c0.5-0.5,0.6-0.7,0.9-1c-2.3,0-4.4-0.1-6.5,0c-5.7,0.3-11.3,0.7-16.9,1.1c-1.3,0.1-2.6,0.3-3.9,0.5c-3.3,0.4-6.5,1.2-9.8,1.2  c-6.7,0-13.5-0.5-20.2-0.8c-3.9-0.2-7.7-0.3-11.6-0.5c-5.1-0.3-10.1-0.6-15.2-0.9c-3.3-0.2-6.6-0.3-9.9-0.4  c-3.8-0.1-7.6,0-11.4-0.1c-4.5-0.2-9-0.6-13.5-0.7c-4.3-0.1-8.5,0.1-12.8,0.1c-2.9,0-5.7-0.2-8.6-0.2c-0.5,0-1,0.2-1.6,0.4  c-0.5,0.2-1,0.5-1.4,0.5c-4.1-0.1-8.1-0.3-12.2-0.5c-2.2-0.1-4.4,0.2-6.6-0.1c-5.3-0.5-10.6-0.3-15.9,0.2c-7.3,0.8-14.6,1.3-22,1.4  c-2.9,0-5.9,0.3-8.8,0.4c-4.5,0.2-8.9,0.6-13.4,0.7c-2.6,0.1-5.2-0.3-7.8-0.2c-7,0.2-14,0.5-21,1c-8.7,0.6-17.4,1.3-26.2,0.9  c-2.5-0.1-5-0.1-7.4-0.1C85,61.1,79.8,61,74.7,61c-3.1,0-6.2-0.1-9.3-0.2c-3.3,0-6.6,0-10,0c-3.1-0.1-6.3-0.2-9.4-0.3  c-4.2-0.1-8.4,0.1-12.6-0.2c-10.5-0.8-21-1.7-31.4-2.6c-3.1-0.3-6.3-0.6-9.1-2.1c-0.7-0.4-1.6-0.4-2.4-0.3  c-5.4,0.2-10.8,0.5-16.3,0.7c-1.5,0-2.9-0.1-4.2,1c-0.2,0.1-0.5,0.1-0.7,0.1c-7.1,0.2-14.2,0.4-21.3,0.6c-1.8,0.1-3.7,0.2-5.5,0.3  c-5.9,0.3-11.9,0.6-17.8,0.9c-2.6,0.1-5.3,0.2-7.9,0.5c-3.8,0.4-7.7,1.3-11.5,1.2c-6.3,0-12.6-0.6-18.9-1c-3.3-0.2-6.7-0.6-10,0.2  c-2.1,0.4-4.2,0-6.2-0.6c0.2-0.3,0.3-0.5,0.6-1c-4.1-0.3-7.9-0.6-11.7-0.7c-5.9-0.2-11.9-0.1-17.8-0.3c-4.3-0.1-8.6-0.5-12.9-0.6  c-6.1-0.2-12.2-0.2-18.3-0.3c-0.8,0-1.5-0.2-2.3-0.2c-1.4-0.1-2.8-0.2-4.2-0.2c-4.2-0.1-8.5-0.1-12.7-0.1c-4.5,0-9.1-0.4-13.6,0.6  c-4.6,1-9.3,1.5-14,1.2c-4-0.2-8.1-0.2-12.1-0.3c-1.7,0-3.4,0.3-5.1,0.2c-4.8-0.2-9.6-0.1-14.3,0.5c-0.4,0.1-0.8,0.4-1.2,0.6  c-0.5,0.2-1,0.7-1.5,0.7c-2.7,0.2-5.5,0.4-8.2,0.5c-4.5,0.1-9,0.5-13.4,0c-6.2-0.7-12.3-0.2-18.4,0.4c-3,0.3-6.1,1-9.1,1.1  c-5.6,0.2-11.3,0.1-16.9,0.2c-0.5,0-0.9,0.2-1.4,0.2c-0.7,0-1.4,0-2.2,0c-0.2-0.1-0.3-0.2-0.5-0.2C-346.6,61.3-352.2,61-357.7,60.8  z"></path></g><g>	<path d="M-197.5,44.7c0-15.5,0-31,0-46.4c266.1,0,532.3,0,798.4,0c0,15.5,0,31,0,46.4c-1.5-0.7-3-1.4-4.6-2  c-1.1-0.4-2.3-0.8-3.5-0.9c-2.7-0.4-5.3-0.6-8-0.9c-1.8-0.2-3.6-0.8-5.4-0.7c-3.8,0.1-7.6,0.6-11.4,0.9c-2.1,0.1-4.2,0-6.3,0  c-2.4,0-4.8,0.2-7.3,0.2c-3.7,0-7.4-0.1-11,0c-2.7,0.1-5.4,0.4-8.1,0.6c-0.4,0-0.8,0-1.1-0.1c0-0.1,0-0.1,0-0.2  c0.3-0.2,0.7-0.4,1.2-0.7c-2.6,0-5-0.2-7.4,0c-5.2,0.5-10.3,1.2-15.5,1.1c-1.7-0.1-3.5,0.1-5.2,0.6c-5.9,1.6-11.9,1.5-17.9,1.1  c-3.7-0.2-7.4-0.8-11.1-0.7c-3.7,0.1-7.3-0.8-10.9-0.5c-0.8,0.1-1.5,0.2-2.3,0.1c-4.6-0.3-9.2-0.6-13.8-0.9  c-3.3-0.2-6.6-0.8-9.8-0.5c-5.1,0.4-10.1,0.2-15.2-0.3c-3-0.3-6-0.4-8.9-0.5c-2.2,0-4.4,0.2-6.6,0.2c-5.7-0.1-11.4-0.2-17-0.3  c-0.3,0-0.8,0.1-0.9,0.3c-0.3,0.9-0.9,0.7-1.6,0.7c-4.8-0.2-9.5-0.4-14.3-0.6c-1.3,0-2.6,0.1-3.9,0.1c-2-0.1-4-0.3-6-0.3  c-5.6,0-11.1,0.5-16.6,1.2c-5.3,0.6-10.6,0.5-16,0.8c-2.8,0.1-5.5,0.2-8.3,0.4c-3.1,0.2-6.3,0.6-9.4,0.7c-3.7,0.1-7.5,0.1-11.2-0.1  c-8.9-0.4-17.8,0.7-26.6,1.3c-4.3,0.3-8.5,0.6-12.8,0.7c-4.8,0.1-9.6-0.2-14.4-0.3c-1.9,0-3.9,0.2-5.8,0.2c-4.4,0.1-8.7-0.3-13-0.5  c-5.1-0.3-10.2,0-15.3-0.1c-4.5,0-8.9-0.5-13.4-0.2c-8.9,0.4-17.6-1.2-26.5-1.5c-5.6-0.2-11.1-0.9-16.7-1.5  c-2.5-0.3-5.1-0.5-7.5-1.7c-0.8-0.4-1.9-0.8-2.8-0.7c-5.2,0.5-10.5,0.9-15.7,0.8c-1.7,0-3.7-0.5-5.2,1c-0.1,0.1-0.3,0-0.4,0  c-5.7,0.3-11.3-0.3-17,0.5c-2.3,0.3-4.7,0.1-7,0.2c-4,0.2-8,0.6-12,0.8c-3.9,0.2-7.9,0.3-11.8,0.4c-1.4,0-2.7,0.1-4.1,0.2  c-4.5,0.5-9,1.5-13.5,1.5c-6.1,0-12.2-0.7-18.3-1.1c-3.1-0.2-6.1-0.5-9.2,0.1c-2.2,0.5-4.4,0.1-6.6-0.6c0.3-0.2,0.7-0.3,1.2-0.5  c-0.7-0.1-1.1-0.2-1.5-0.3c-3.9-0.7-7.8-0.8-11.7-0.8c-4.6,0-9.1-0.3-13.7-0.4c-1.1,0-2.3,0.1-3.4,0.1c-5.6-0.2-11.2-0.5-16.8-0.6  c-4.9-0.1-9.7-0.1-14.6-0.1c-0.5,0-1.1-0.1-1.6-0.2c-0.7-0.1-1.5-0.4-2.2-0.4c-1.5,0-3.1,0.2-4.6,0.2c-5.8-0.1-11.7-0.3-17.5-0.3  c-2.2,0-4.4,0.2-6.5,0.7c-5.1,1.1-10.1,1.6-15.3,1c-2.6-0.3-5.1-0.2-7.7-0.2c-3,0-6.1,0.4-9.1,0.3c-4.6-0.2-9.1,0-13.7,0.6  c-0.4,0-0.9,0.3-1,0.5c-0.2,0.7-0.7,0.7-1.2,0.7c-3.6,0.2-7.2,0.4-10.8,0.5c-3.3,0.1-6.6,0.2-10,0.1c-2.1-0.1-4.3-0.6-6.4-0.6  c-6.1,0.1-12.1,0.6-18.1,1.6c-1.5,0.3-3,0.4-4.5,0.4c-4.6,0.1-9.2,0.1-13.7,0.1c-2,0-4.1,0.1-6.1,0.1c-3.5-0.1-7-0.2-10.5-0.3  C-193.2,45.1-195.4,44.9-197.5,44.7z"></path></g><g>	<path d="M600.5,44.7c0-15.5,0-31,0-46.4c266.1,0,532.3,0,798.4,0c0,15.5,0,31,0,46.4c-1.5-0.7-3-1.4-4.6-2  c-1.1-0.4-2.3-0.8-3.5-0.9c-2.7-0.4-5.3-0.6-8-0.9c-1.8-0.2-3.6-0.8-5.4-0.7c-3.8,0.1-7.6,0.6-11.4,0.9c-2.1,0.1-4.2,0-6.3,0  c-2.4,0-4.8,0.2-7.3,0.2c-3.7,0-7.4-0.1-11,0c-2.7,0.1-5.4,0.4-8.1,0.6c-0.4,0-0.8,0-1.1-0.1c0-0.1,0-0.1,0-0.2  c0.3-0.2,0.7-0.4,1.2-0.7c-2.6,0-5-0.2-7.4,0c-5.2,0.5-10.3,1.2-15.5,1.1c-1.7-0.1-3.5,0.1-5.2,0.6c-5.9,1.6-11.9,1.5-17.9,1.1  c-3.7-0.2-7.4-0.8-11.1-0.7c-3.7,0.1-7.3-0.8-10.9-0.5c-0.8,0.1-1.5,0.2-2.3,0.1c-4.6-0.3-9.2-0.6-13.8-0.9  c-3.3-0.2-6.6-0.8-9.8-0.5c-5.1,0.4-10.1,0.2-15.2-0.3c-3-0.3-6-0.4-8.9-0.5c-2.2,0-4.4,0.2-6.6,0.2c-5.7-0.1-11.4-0.2-17-0.3  c-0.3,0-0.8,0.1-0.9,0.3c-0.3,0.9-0.9,0.7-1.6,0.7c-4.8-0.2-9.5-0.4-14.3-0.6c-1.3,0-2.6,0.1-3.9,0.1c-2-0.1-4-0.3-6-0.3  c-5.6,0-11.1,0.5-16.6,1.2c-5.3,0.6-10.6,0.5-16,0.8c-2.8,0.1-5.5,0.2-8.3,0.4c-3.1,0.2-6.3,0.6-9.4,0.7c-3.7,0.1-7.5,0.1-11.2-0.1  c-8.9-0.4-17.8,0.7-26.6,1.3c-4.3,0.3-8.5,0.6-12.8,0.7c-4.8,0.1-9.6-0.2-14.4-0.3c-1.9,0-3.9,0.2-5.8,0.2c-4.4,0.1-8.7-0.3-13-0.5  c-5.1-0.3-10.2,0-15.3-0.1c-4.5,0-8.9-0.5-13.4-0.2c-8.9,0.4-17.6-1.2-26.5-1.5c-5.6-0.2-11.1-0.9-16.7-1.5  c-2.5-0.3-5.1-0.5-7.5-1.7c-0.8-0.4-1.9-0.8-2.8-0.7c-5.2,0.5-10.5,0.9-15.7,0.8c-1.7,0-3.7-0.5-5.2,1c-0.1,0.1-0.3,0-0.4,0  c-5.7,0.3-11.3-0.3-17,0.5c-2.3,0.3-4.7,0.1-7,0.2c-4,0.2-8,0.6-12,0.8c-3.9,0.2-7.9,0.3-11.8,0.4c-1.4,0-2.7,0.1-4.1,0.2  c-4.5,0.5-9,1.5-13.5,1.5c-6.1,0-12.2-0.7-18.3-1.1c-3.1-0.2-6.1-0.5-9.2,0.1c-2.2,0.5-4.4,0.1-6.6-0.6c0.3-0.2,0.7-0.3,1.2-0.5  c-0.7-0.1-1.1-0.2-1.5-0.3c-3.9-0.7-7.8-0.8-11.7-0.8c-4.6,0-9.1-0.3-13.7-0.4c-1.1,0-2.3,0.1-3.4,0.1c-5.6-0.2-11.2-0.5-16.8-0.6  c-4.9-0.1-9.7-0.1-14.6-0.1c-0.5,0-1.1-0.1-1.6-0.2c-0.7-0.1-1.5-0.4-2.2-0.4c-1.5,0-3.1,0.2-4.6,0.2c-5.8-0.1-11.7-0.3-17.5-0.3  c-2.2,0-4.4,0.2-6.5,0.7c-5.1,1.1-10.1,1.6-15.3,1c-2.6-0.3-5.1-0.2-7.7-0.2c-3,0-6.1,0.4-9.1,0.3c-4.6-0.2-9.1,0-13.7,0.6  c-0.4,0-0.9,0.3-1,0.5c-0.2,0.7-0.7,0.7-1.2,0.7c-3.6,0.2-7.2,0.4-10.8,0.5c-3.3,0.1-6.6,0.2-10,0.1c-2.1-0.1-4.3-0.6-6.4-0.6  c-6.1,0.1-12.1,0.6-18.1,1.6c-1.5,0.3-3,0.4-4.5,0.4c-4.6,0.1-9.2,0.1-13.7,0.1c-2,0-4.1,0.1-6.1,0.1c-3.5-0.1-7-0.2-10.5-0.3  C604.8,45.1,602.6,44.9,600.5,44.7z"></path></g><g>	<path d="M1398.5,44.7c0-15.5,0-31,0-46.4c266.1,0,532.3,0,798.4,0c0,15.5,0,31,0,46.4c-1.5-0.7-3-1.4-4.6-2  c-1.1-0.4-2.3-0.8-3.5-0.9c-2.7-0.4-5.3-0.6-8-0.9c-1.8-0.2-3.6-0.8-5.4-0.7c-3.8,0.1-7.6,0.6-11.4,0.9c-2.1,0.1-4.2,0-6.3,0  c-2.4,0-4.8,0.2-7.3,0.2c-3.7,0-7.4-0.1-11,0c-2.7,0.1-5.4,0.4-8.1,0.6c-0.4,0-0.8,0-1.1-0.1c0-0.1,0-0.1,0-0.2  c0.3-0.2,0.7-0.4,1.2-0.7c-2.6,0-5-0.2-7.4,0c-5.2,0.5-10.3,1.2-15.5,1.1c-1.7-0.1-3.5,0.1-5.2,0.6c-5.9,1.6-11.9,1.5-17.9,1.1  c-3.7-0.2-7.4-0.8-11.1-0.7c-3.7,0.1-7.3-0.8-10.9-0.5c-0.8,0.1-1.5,0.2-2.3,0.1c-4.6-0.3-9.2-0.6-13.8-0.9  c-3.3-0.2-6.6-0.8-9.8-0.5c-5.1,0.4-10.1,0.2-15.2-0.3c-3-0.3-6-0.4-8.9-0.5c-2.2,0-4.4,0.2-6.6,0.2c-5.7-0.1-11.4-0.2-17-0.3  c-0.3,0-0.8,0.1-0.9,0.3c-0.3,0.9-0.9,0.7-1.6,0.7c-4.8-0.2-9.5-0.4-14.3-0.6c-1.3,0-2.6,0.1-3.9,0.1c-2-0.1-4-0.3-6-0.3  c-5.6,0-11.1,0.5-16.6,1.2c-5.3,0.6-10.6,0.5-16,0.8c-2.8,0.1-5.5,0.2-8.3,0.4c-3.1,0.2-6.3,0.6-9.4,0.7c-3.7,0.1-7.5,0.1-11.2-0.1  c-8.9-0.4-17.8,0.7-26.6,1.3c-4.3,0.3-8.5,0.6-12.8,0.7c-4.8,0.1-9.6-0.2-14.4-0.3c-1.9,0-3.9,0.2-5.8,0.2c-4.4,0.1-8.7-0.3-13-0.5  c-5.1-0.3-10.2,0-15.3-0.1c-4.5,0-8.9-0.5-13.4-0.2c-8.9,0.4-17.6-1.2-26.5-1.5c-5.6-0.2-11.1-0.9-16.7-1.5  c-2.5-0.3-5.1-0.5-7.5-1.7c-0.8-0.4-1.9-0.8-2.8-0.7c-5.2,0.5-10.5,0.9-15.7,0.8c-1.7,0-3.7-0.5-5.2,1c-0.1,0.1-0.3,0-0.4,0  c-5.7,0.3-11.3-0.3-17,0.5c-2.3,0.3-4.7,0.1-7,0.2c-4,0.2-8,0.6-12,0.8c-3.9,0.2-7.9,0.3-11.8,0.4c-1.4,0-2.7,0.1-4.1,0.2  c-4.5,0.5-9,1.5-13.5,1.5c-6.1,0-12.2-0.7-18.3-1.1c-3.1-0.2-6.1-0.5-9.2,0.1c-2.2,0.5-4.4,0.1-6.6-0.6c0.3-0.2,0.7-0.3,1.2-0.5  c-0.7-0.1-1.1-0.2-1.5-0.3c-3.9-0.7-7.8-0.8-11.7-0.8c-4.6,0-9.1-0.3-13.7-0.4c-1.1,0-2.3,0.1-3.4,0.1c-5.6-0.2-11.2-0.5-16.8-0.6  c-4.9-0.1-9.7-0.1-14.6-0.1c-0.5,0-1.1-0.1-1.6-0.2c-0.7-0.1-1.5-0.4-2.2-0.4c-1.5,0-3.1,0.2-4.6,0.2c-5.8-0.1-11.7-0.3-17.5-0.3  c-2.2,0-4.4,0.2-6.5,0.7c-5.1,1.1-10.1,1.6-15.3,1c-2.6-0.3-5.1-0.2-7.7-0.2c-3,0-6.1,0.4-9.1,0.3c-4.6-0.2-9.1,0-13.7,0.6  c-0.4,0-0.9,0.3-1,0.5c-0.2,0.7-0.7,0.7-1.2,0.7c-3.6,0.2-7.2,0.4-10.8,0.5c-3.3,0.1-6.6,0.2-10,0.1c-2.1-0.1-4.3-0.6-6.4-0.6  c-6.1,0.1-12.1,0.6-18.1,1.6c-1.5,0.3-3,0.4-4.5,0.4c-4.6,0.1-9.2,0.1-13.7,0.1c-2,0-4.1,0.1-6.1,0.1c-3.5-0.1-7-0.2-10.5-0.3  C1402.8,45.1,1400.6,44.9,1398.5,44.7z"></path></g></svg>