<svg xmlns="http://www.w3.org/2000/svg" viewBox="0 0 468.93 495.73"><defs><style>.cls-1{fill:#030303;}.cls-2{fill:#8693c3;}.cls-3{fill:#fdfdfd;}</style></defs><g id="Layer_2" data-name="Layer 2"><g id="Layer_1-2" data-name="Layer 1"><path class="cls-1" d="M382.35,430.67c0,3.39,0,6.79,0,10.18-.15,9.79-4.33,14.77-14.15,15-21.64.53-43.36,1.56-64.94.44a1041.58,1041.58,0,0,0-120.88,1.1c-33.79,2.17-67.62,2.58-101.37-.58-43.54-4.09-73.82-34.06-78.54-77.58A355,355,0,0,1,.19,342.38c-.15-51.49-.5-103,.45-154.47.55-29.79,3.42-59.53,5.29-89.29.73-11.61.7-23.34,5.15-34.4C23.26,34,45.87,15.74,77.08,8,110.48-.19,144.55.8,178.5,2.45c32.85,1.59,65.61.38,98.42-.78C310.54.49,344.21-.41,377.82.19c35.16.62,65.42,25.06,78.64,60.43,6.81,18.2,7.54,37.15,7.75,56.09q1.17,107,1.63,213.94c.2,34-.24,68,.16,102,.16,13.13,2,26.23,2.77,39.37a83.62,83.62,0,0,1-.51,15.9c-.87,6.47-5.06,8.76-11.57,7.48-7.57-1.49-13.25-6.1-18.53-11.2q-26.42-25.53-52.58-51.32a14.35,14.35,0,0,1-1.92-3.34Zm-55-412.54c-5.82.07-11.65-.11-17.45.24a1337.63,1337.63,0,0,1-162.79.13c-22.8-1.39-45.54.41-67.68,6.87C49.31,33.89,30.69,53,25.35,84.22a33.48,33.48,0,0,0,0,5.84c-.4,2.91-1,5.8-1.16,8.71-.88,18.44-1.8,36.87-2.44,55.32-.58,16.6-.81,33.22-1.19,49.83-.36,55.15-.85,110.3-1,165.45-.08,25.83,12,45.08,33.58,58.66,15.13,9.5,32.25,11.41,49.4,11.74,27,.52,54,0,80.94-.1,2.82,0,5.65.16,8.46.05,15.15-.56,30.29-1.26,45.44-1.77q49.08-1.65,98.16-3.17H360V423.12c.41-4,.51-8,1.3-11.88,2-10.07,8.56-13.35,17.64-8.36a80.33,80.33,0,0,1,14.4,10.62c15.82,14,31.41,28.28,47.09,42.45l7.82,7.41c0-3,0-5.23,0-7.5Q447.66,293,447,130.11c-.08-17.65-.17-35.33-4.61-52.58-8-31.18-26.7-52.24-59.28-57C364.79,17.84,345.94,18.81,327.33,18.13Z"></path><path class="cls-2" d="M335.5,434.78q-49.08,1.59-98.16,3.17c-15.15.51-30.29,1.21-45.44,1.77-2.81.11-5.64,0-8.46-.05l3.18-1.34c-14.21-.84-28.36-1.26-42.41-2.63-14.85-1.44-29.86-2.69-44.36-6-30.75-7-54.21-23.94-66.95-53.72-7.58-17.71-10.19-36.46-10.44-55.52-.48-37-.6-73.92-.93-110.88a34,34,0,0,0-1-5.68c.38-16.61.61-33.23,1.19-49.83.64-18.45,1.56-36.88,2.44-55.32.14-2.91.76-5.8,1.16-8.71a18.86,18.86,0,0,0,1.93-3.32C36,60.61,52.36,41,76.68,28a14,14,0,0,0,2.73-2.62c22.14-6.46,44.88-8.26,67.68-6.87a1337.63,1337.63,0,0,0,162.79-.13c5.8-.35,11.63-.17,17.45-.24l-1.51.92c13.56,1.24,27.62,2,41.54,3.9,36.23,4.86,59.34,27.44,63.94,63.57,3.21,25.2,5.46,50.58,6.85,76,1.73,31.72,2.43,63.51,3,95.28.31,17.63-.53,35.28-.86,52.92,0,.83-.12,1.66-.12,2.49-.07,22.8-.21,45.6-.16,68.4.06,24.79.3,49.59.46,74.39-15.68-14.17-31.27-28.43-47.09-42.45A80.33,80.33,0,0,0,379,402.88c-9.08-5-15.6-1.71-17.64,8.36-.79,3.89-.89,7.91-1.3,11.88ZM361.32,329l3-1.41c8.22-4.5,16.82-8.44,24.56-13.63,12.28-8.25,19.21-19.45,15.65-35.05.5-8.7,2-17.48,1.32-26.1-2-27-10-52.69-19.71-77.85-1.34-3.48-3.25-6.75-4.89-10.12-1.29-3-2.8-5.94-3.82-9-2.73-8.2-5.22-16.47-7.84-24.7-3.42-10.74-9.86-19.42-19.49-25.07A193.6,193.6,0,0,0,324.2,93.35c-13.87-5.55-27.87-10.93-43.15-11.55-4.88-.2-8.77,1.46-10.94,5.51-2.76,5.14-4.69,10.72-6.64,15.29H198.3c0-1.95.08-3.76,0-5.55-.54-10.13-8.12-16.61-17.74-14.83a330.39,330.39,0,0,0-62.71,17.92c-12,4.78-20.46,13-24.56,25.26-2.58,7.71-4.6,15.61-7,23.39-.85,2.79-2,5.49-3,8.23a31,31,0,0,0-1.83,3.4C72,184.15,66.6,208.91,62.5,234c-.15.94.63,2,1,3.05a8.92,8.92,0,0,1,.37,2.84c-.72,3.49-2,6.91-2.38,10.42-.82,6.75-.88,13.59-1.85,20.31-2.65,18.52,3,33,18.55,44.18,20.42,14.66,43.27,22.13,67.78,25.75,7.35,1.08,12.63-1.33,16.46-7.53s8-12.28,11.64-18.61c1.9-3.29,3.79-4.2,7.56-3a105.9,105.9,0,0,0,18.86,4.53,249.8,249.8,0,0,0,78.44-3.21,6.48,6.48,0,0,1,5.22,1.89c5.06,6.16,9.9,12.53,14.55,19,5.45,7.59,12.66,9.81,21.46,7.64,4.37-1.07,8.7-2.31,13.05-3.48,4-.64,8.21-.78,12-2.06,5.55-1.86,10.82-4.54,16.2-6.86Z"></path><path class="cls-1" d="M83.25,157c1-2.74,2.2-5.44,3-8.23,2.38-7.78,4.4-15.68,7-23.39,4.1-12.29,12.58-20.48,24.56-25.26a330.39,330.39,0,0,1,62.71-17.92c9.62-1.78,17.2,4.7,17.74,14.83.09,1.79,0,3.6,0,5.55h65.17c1.95-4.57,3.88-10.15,6.64-15.29,2.17-4,6.06-5.71,10.94-5.51,15.28.62,29.28,6,43.15,11.55A193.6,193.6,0,0,1,350.14,106c9.63,5.65,16.07,14.33,19.49,25.07,2.62,8.23,5.11,16.5,7.84,24.7,1,3.1,2.53,6,3.82,9a48.83,48.83,0,0,0,1.13,6.63c10.88,35.09,17,71.17,22.15,107.44,3.56,15.6-3.37,26.8-15.65,35.05-7.74,5.19-16.34,9.13-24.55,13.63L361.32,329l.08-.1-28.21,8.92c-4.35,1.17-8.68,2.41-13.05,3.48-8.8,2.17-16-.05-21.46-7.64-4.65-6.49-9.49-12.86-14.55-19a6.48,6.48,0,0,0-5.22-1.89,249.8,249.8,0,0,1-78.44,3.21,105.9,105.9,0,0,1-18.86-4.53c-3.77-1.18-5.66-.27-7.56,3-3.65,6.33-7.79,12.39-11.64,18.61s-9.11,8.61-16.46,7.53c-24.51-3.62-47.36-11.09-67.78-25.75C62.63,303.65,57,289.14,59.62,270.62c1-6.72,1-13.56,1.85-20.31.42-3.51,1.66-6.93,2.38-10.42a8.92,8.92,0,0,0-.37-2.84,20.58,20.58,0,0,0,1.27-3q9-35.6,17.87-71.21A41.61,41.61,0,0,0,83.25,157ZM329.13,299.61l0,.05L327.45,301h0l-26.16,14,2.95,4L311,329.67a6.57,6.57,0,0,0,1.4.08c2.41-.62,4.81-1.29,7.23-1.89,21.31-5.33,41.4-13,58.49-27.56,8.47-7.22,12.11-15.22,11.25-26.51-1.8-23.49-5.56-46.42-12.89-68.9-7-21.45-12.71-43.31-19.07-65-3.61-12.3-10.95-21.87-22.8-26.85-16.95-7.11-34.25-13.4-51.48-19.83-.68-.25-2.19,1.73-3.32,2.68L278,100.19l42.56,15.62a1,1,0,0,0,.55.3l1.34.72c3.79,2,7.77,3.83,11.34,6.22a81.58,81.58,0,0,1,11.59,9.26c1.15,1.14,1.6,4.53.75,5.76-1.06,1.52-3.81,2.51-5.83,2.52a15.9,15.9,0,0,1-7.13-2c-14.32-7.5-29.91-10.78-45.5-14.23C235,112.68,183.59,116.63,133.5,137a122.87,122.87,0,0,1-14.46,5.3c-1.82.49-5.53-.47-6-1.67-.8-2.1-.21-5.09.7-7.34.68-1.67,2.61-3,4.28-4.07,9.46-5.82,18.67-12.22,28.63-17.05,12-5.84,24.75-10.3,37.51-15.49-.25-1.12-.62-2.84-1-4.5-15.76,1-53.94,13.71-66.64,22a28.3,28.3,0,0,0-12.09,16.53c-12.76,44.3-21.6,89.46-29.91,134.76-3,16.63,1.23,29.91,15.94,39.13.14.09.26.2.39.3C106,316.6,123.72,322,142,325.91c11.22,2.37,7.48,3.61,14.44-6l4.93-6.51a109.49,109.49,0,0,1-34.81-20.79c-2.56-3.67-5.51-7.13-7.55-11.06-1.77-3.43-2.55-7.68,1-10.55s6.55,0,9.52,1.77c.57.34,1.09.76,1.63,1.15a142,142,0,0,0,50.46,23c33.19,8.12,66.41,6.36,99.47-.62,19.62-4.14,38.5-10.39,54.31-23.55a13.42,13.42,0,0,1,4.41-2.24c4.89-1.54,8.68,1.68,7.27,6.57a27.18,27.18,0,0,1-5,9.62c-3.6,4.32-7.92,8-11.94,12Z"></path><path class="cls-3" d="M361.32,329l3.05-1.41Z"></path><path class="cls-2" d="M156.47,320c-6-3.69-12.77-6.64-17.93-11.31-4.84-4.38-8-10.59-11.95-16a109.49,109.49,0,0,0,34.81,20.79Z"></path><path class="cls-2" d="M279.83,95.92c12,5.32,24,10.58,35.89,16,1.83.84,3.26,2.55,4.88,3.86L278,100.19Z"></path><path class="cls-2" d="M327.47,301c-5,4.46-10,9.09-15.17,13.33-2.37,1.93-5.34,3.13-8,4.66l-2.95-4Z"></path><path class="cls-2" d="M329.09,299.66,327.46,301Z"></path><path class="cls-2" d="M321.15,116.11l1.34.72Z"></path><path class="cls-2" d="M330.22,298.7l-1.09.91Z"></path><path class="cls-1" d="M280.11,266.06c-17.51.1-32.25-15.6-32.26-34.36S262,198,279.42,198c18,0,33,15.85,33,35S299,265.94,280.11,266.06Z"></path><path class="cls-1" d="M175.89,266c-11.19-.53-20-6.16-25.76-16.63a35.87,35.87,0,0,1,7.64-44.18c9.33-8.13,19.93-10.68,31.45-5.19,11.79,5.61,18.65,15,18.7,28.32,0,10.21-2.85,19.75-9.7,27.68C192.57,262.57,185.35,265.84,175.89,266Z"></path></g></g></svg>