<svg xmlns="http://www.w3.org/2000/svg" viewBox="0 0 841.92 49.82"><g id="Layer_2" data-name="Layer 2"><g id="Layer_1-2" data-name="Layer 1"><path d="M841.92.85v49H0V.85C1.6,1.56,3.17,2.34,4.81,3a17,17,0,0,0,3.64,1c2.8.39,5.62.63,8.43,1a37.14,37.14,0,0,0,5.67.73c4-.15,8-.68,12-.94,2.23-.13,4.47,0,6.7,0,2.55,0,5.1-.19,7.66-.22,3.87,0,7.75.07,11.62,0,2.87-.07,5.72-.39,8.58-.59a9.93,9.93,0,0,1,1.21.07l0,.23-1.24.72c2.77,0,5.29.2,7.76,0,5.44-.53,10.86-1.29,16.35-1.12a18.81,18.81,0,0,0,5.45-.6c6.24-1.68,12.57-1.54,18.92-1.15,3.89.24,7.8.85,11.68.75s7.67.87,11.53.56a17.41,17.41,0,0,1,2.39-.13c4.85.28,9.7.61,14.56.91,3.45.22,6.94.79,10.36.56a93,93,0,0,1,16,.29c3.12.32,6.27.44,9.41.51,2.31,0,4.63-.22,6.94-.2,6,.06,12,.21,18,.3.32,0,.88-.11.93-.29.3-.95,1-.73,1.65-.7,5,.24,10,.47,15.06.66,1.36.05,2.72-.14,4.07-.1,2.11.07,4.22.34,6.33.33A151.08,151.08,0,0,0,264,4.13c5.57-.67,11.23-.56,16.85-.8,2.9-.13,5.81-.2,8.71-.39,3.3-.21,6.59-.68,9.9-.77,3.94-.12,7.91-.06,11.85.12,9.41.45,18.73-.72,28.08-1.4,4.49-.32,9-.68,13.49-.74C358,.08,363,.37,368.1.43c2,0,4.06-.16,6.1-.22,4.59-.12,9.15.29,13.73.55,5.38.3,10.79,0,16.18.08,4.71.05,9.44.5,14.13.27,9.38-.46,18.61,1.25,27.93,1.57,5.89.19,11.76.93,17.62,1.54a21.59,21.59,0,0,1,7.88,1.83,5.63,5.63,0,0,0,2.91.71c5.53-.51,11-.9,16.6-.89,1.77,0,3.89.56,5.45-1,.09-.09.31,0,.47-.05,6-.33,11.95.28,17.91-.53,2.43-.33,4.93-.07,7.39-.21,4.22-.24,8.43-.66,12.65-.88s8.28-.27,12.43-.41c1.43-.05,2.87-.07,4.29-.23C556.51,2,561.26,1,566,.94c6.44,0,12.89.72,19.33,1.15,3.22.21,6.42.52,9.65-.16a14,14,0,0,1,6.93.64l-1.3.57c.69.15,1.15.26,1.61.34a72.3,72.3,0,0,0,12.39.85c4.81,0,9.63.29,14.45.43,1.2,0,2.4-.11,3.59-.07,5.9.21,11.8.53,17.7.68,5.12.13,10.24.08,15.35.13a10.31,10.31,0,0,1,1.66.2,16.23,16.23,0,0,0,2.37.38c1.63,0,3.26-.21,4.9-.19,6.15.07,12.3.28,18.45.28a32.76,32.76,0,0,0,6.85-.69,49.9,49.9,0,0,1,16.16-1.09,71.09,71.09,0,0,0,8.13.23c3.19,0,6.39-.43,9.57-.28a79.08,79.08,0,0,0,14.43-.65c.37,0,.94-.3,1-.58.23-.71.68-.73,1.28-.75,3.79-.17,7.57-.42,11.36-.54,3.5-.12,7-.22,10.5-.14,2.26.06,4.52.68,6.77.64a118.1,118.1,0,0,0,19-1.7A31.52,31.52,0,0,1,803,.22c4.83-.07,9.66-.07,14.49-.11,2.15,0,4.3-.14,6.45-.1q5.57.11,11.12.36C837.32.47,839.62.69,841.92.85Z"></path></g></g></svg>