<svg xmlns="http://www.w3.org/2000/svg" xmlns:xlink="http://www.w3.org/1999/xlink" id="Layer_1" x="0px" y="0px" viewBox="0 0 2000 68" style="enable-background:new 0 0 2000 68;" xml:space="preserve"><style type="text/css">	.st0{opacity:0.2;}	.st1{fill:#FFFFFF;}	.st2{fill:#C7B299;}	.st3{fill:none;}	.st4{opacity:0.3;clip-path:url(#SVGID_00000093867029786443425020000003754889413948797600_);}	.st5{opacity:0.3;clip-path:url(#SVGID_00000062153745324425658410000007671896383225420163_);}	.st6{opacity:0.3;clip-path:url(#SVGID_00000080179930566207304560000013729740025304613000_);}	.st7{fill:#534741;}	.st8{fill:#CFC0AD;}	.st9{fill:#D2C7AB;}</style><g>	<path class="st2" d="M2440,108c-1326,0-2652,0-3978,0c0-25.8,0-51.6,0-77.4c3.7-0.1,7.4-0.2,11.1-0.3c8.4-0.2,16.8-0.5,25.3-0.6  c2.6,0,5.2,0.3,7.7,0.3c5.2,0.1,10.5-0.1,15.7,0c3,0.1,6.1,0.2,9.1,0.7c9.5,1.5,19.1,2.6,28.7,2.5c4.5-0.1,9-0.8,13.5-0.7  c9.9,0.1,19.8,0.5,29.7,0.8c2.1,0.1,4.3-0.1,5.9,1.8c0.3,0.4,1.1,0.5,1.7,0.6c3.6,0.3,7.1,0.7,10.7,0.8c5.4,0.1,10.7,0,16.1,0  c0.8,0,1.6,0.1,2.4,0.1c6.8,0.1,13.5,0.1,20.3,0.1c6.2,0.1,12.5-0.2,18.7,0.4c7.2,0.7,14.3,2.5,21.7,2.2c10-0.4,20-0.1,30-0.2  c3,0,6.1-0.6,9.1-0.7c15.3-0.4,30.6-0.8,46-1.2c6.3-0.2,12.6-0.3,18.9-0.4c8-0.2,16.1-0.2,24.1-0.5c3.9-0.1,7.8-0.7,11.7-1.3  c0.6-0.1,1.2-0.8,1.8-1.2c-0.1-0.3-0.2-0.7-0.3-1c3-0.1,6-0.3,9.1-0.3c2.3,0,4.6,0.6,6.9,0.6c3.7,0,7.4-0.2,11.1-0.4  c6.1-0.4,12.2-1.1,18.3-1.2c6.4-0.2,12.9-0.2,19.3,0.4c8.3,0.8,16.5,2.3,25,2.2c5-0.1,10.1,0.4,15.1,0.7c11.6,0.7,23.3,1.5,34.9,2  c7.3,0.3,14.6,0.2,21.9,0.5c1.5,0,3,0.7,4.5,1c1.6,0.3,3.2,0.8,4.8,0.8c5.4,0.2,10.7,0.1,16.1,0.2c3,0.1,6,0.2,8.9,0.7  c3.7,0.6,6.9-0.3,10.2-1.7c2-0.9,4.2-1.2,6.4-1.5c2.8-0.4,5.7-0.7,8.5-0.9c7.7-0.7,15.3-1.3,23-1.9c5.8-0.5,11.5-0.9,17.3-1.3  c8.5-0.5,17.1-1,25.6-1.4c1-0.1,2,0.3,3,0.2c6.3-1.1,12.7-2.2,19-3.3c1.8-0.3,3.7-0.9,5.5-0.7c5.6,0.7,11.1,1.7,16.7,2.5  c2.6,0.4,5.3,0.8,7.9,0.8c5.9-0.1,11.8-0.4,17.7-0.7c1.6-0.1,3.3-0.2,4.6-0.9c4.7-2.5,9.6-2.1,14.6-1.2c7.3,1.3,14.5,2.4,21.9,2.2  c2.6-0.1,5.2,0.2,7.7,0.4c7.3,0.6,14.5,1.3,21.8,1.9c5.8,0.5,11.6,1.1,17.5,1.2c6.5,0.2,13-0.2,19.5-0.3c5,0,10.1-0.3,15.1,0.4  c4.6,0.6,9.2,2.2,13.7,3.4c0.7,0.2,1.4,0.7,1.9,1.3c3.3,3.7,6.6,7.4,9.9,11.2c2.5,2.8,3.9,3.2,6.9,1c2.8-2,5.1-4.6,7.7-6.9  c2.1-1.9,4.1-4,6.3-5.8c1.7-1.4,3.7-1.8,6-1.6c8.4,0.7,16.8,1.4,25.2,1.7c5,0.2,9.9-0.2,14.9-0.3c7.5-0.2,15-0.6,22.5-0.8  c2.2-0.1,4.6-0.3,6.5,0.4c1.7,0.7,3.2,1.1,4.9,1.1c1.9-0.1,3.7-0.3,5.6-0.3c8.8,0,17.7,0.1,26.5-0.1c8-0.2,15.9-0.8,23.8-1.1  c5-0.2,9.9-0.3,14.9-0.4c4.8,0,9.6,0.5,14.3,0.2c12.2-0.8,24.4-2.2,36.7-1.9c4.8,0.1,9.5-0.5,14.3-0.8c6.9-0.4,13.9-0.8,20.8-1.3  c8.2-0.5,16.5-0.9,24.6,0.9c6.9,1.5,13.7,2,20.7,2.1c5.3,0.1,10.6,1,15.8,1.3c4.5,0.2,9,0,13.5,0c-0.1-0.5-0.2-0.8-0.2-1.3  c0.9,0,1.6,0,2.3,0c4.8,0.3,9.5,1,14.3,1c11.5,0.2,23.1,0.1,34.6,0.1c0.9,0,1.7,0,2.6,0.1c6.3,0.5,12.7,1.4,19,1.4  c6-0.1,12-1.2,18-1.7c5.7-0.4,11.2-1.6,16.3-4.2c2-1.1,4.1-1.7,6.4-1.6c2.2,0,4.5-0.3,6.7-0.4c8.4-0.3,16.8-0.5,25.3-0.7  c3.9-0.1,7.8,0.2,11.7,0.3c4.1,0.1,8.1-0.1,12.2,0c2.9,0.1,5.8,0.3,8.7,0.6c8.4,0.8,16.9,2,25.3,2.5c5.3,0.3,10.6-0.7,15.9-0.7  c10.9,0.1,21.9,0.5,32.8,0.8c1.8,0,2.9,0.8,3.7,2.5c3,6,6.1,11.9,9.3,17.8c1.3,2.3,3,2.6,4.6,0.4c1.2-1.6,1.9-3.5,2.6-5.3  c1-2.7,1.7-5.4,2.8-8.1c0.8-2,2.1-3.9,4.5-4c2.3-0.2,4.6,0,7,0c6.8,0.1,13.5,0.1,20.3,0.2c6.2,0.1,12.5-0.2,18.7,0.4  c7.3,0.7,14.4,2.6,21.9,2.2c10.1-0.4,20.3-0.1,30.4-0.2c2.8,0,5.7-0.6,8.5-0.7c15.4-0.4,30.8-0.8,46.2-1.2  c6.2-0.2,12.5-0.3,18.7-0.4c8-0.2,15.9-0.2,23.9-0.5c4-0.2,7.9-0.8,11.9-1.2c0.9-0.1,2-0.3,1.3-2.2c3.3-0.1,6.3-0.3,9.3-0.3  c2.4,0,4.7,0.6,7.1,0.6c3.6,0,7.3-0.2,10.9-0.4c6.1-0.4,12.2-1.1,18.3-1.2c6.4-0.2,12.8-0.5,19.1,0.3c10.3,1.4,20.7,2.1,31.1,2.5  c8.1,0.3,16.2,0.8,24.2,1.3c9.3,0.5,18.7,1.1,28,1.5c4.6,0.2,9.3,0,14,0.1c1.5,0,2.9,0.7,4.3,1c1.6,0.3,3.2,0.8,4.8,0.8  c5.4,0.2,10.7,0.1,16.1,0.2c1.9,0,3.8,0.2,5.8,0.4c4.6,0.6,9.2,1.1,13.5-1.5c0.7-0.4,1.5-0.6,2.3-0.7c5.3-0.7,10.5-1.5,15.8-2  c13.2-1.1,26.4-2.1,39.6-3.2c4.6-0.4,9.2-0.8,13.9-1.1c6.4-0.3,12.9-0.4,18.9,2.6c5.3,2.7,10.7,4.8,16.8,5.2  c6.5,0.4,12.3,3.6,18,6.6c2,1,3.2,1,4.8-0.7c3.6-3.5,7.4-6.9,11.3-10.1c3.9-3.3,8.2-5.6,13.6-4.9c3.2,0.4,6.5,0.3,9.7,0.4  c1.9,0,3.8-0.3,5.8-0.3c8.3,0.1,16.6,0.1,24.9,0.4c6.4,0.2,12.8,0.7,19.3,1.3c11.3,0.9,22.6,2.1,33.9,1.6c7.7-0.3,15.5-0.2,23.3,0  c6,0.2,12,1,18.1,1.2c5.6,0.2,11.3,0,16.9-0.4c4.2-0.3,8.3-1.6,12.6-2c5.9-0.6,11.6,1.3,17.2,3c6.7,2,13.5,3.5,20.6,2.9  c1.8-0.1,3.6-0.3,5.4-0.4c8.6-0.3,17.1-0.6,25.7-0.8c2.2,0,4.5,0.2,6.7,0.5c1.3,0.2,2.5,0.9,3.7,1c2.4,0.1,4.8-0.3,7.1-0.3  c9,0,17.9,0.1,26.9-0.1c7.6-0.2,15.2-0.8,22.8-1.1c5.7-0.2,11.4,0,17.1-0.1c7.4-0.2,14.7-0.5,22.1-0.8c4.4-0.2,8.9-0.5,13.3-0.9  c4.7-0.4,9.2-0.8,13.2,2.6c2.3,1.9,5,1.5,7.5,0c1-0.6,1.8-1.4,2.8-1.8c1.9-0.7,3.9-1.6,6-1.7c6.3-0.6,12.7-0.9,19-1.3  c8.2-0.6,16.5-0.9,24.6,0.9c6.9,1.5,13.7,2.1,20.7,2c3,0,5.9,0.5,8.9,0.7c5.2,0.3,10.3,0.6,15.5,0.9c2.2,0.2,3.9-0.4,5.3-2.1  c0.4-0.5,1-1,1.6-1c3.8-0.2,7.7-0.3,11.5-0.3c6.9-0.1,13.8,0,20.7-0.1c3,0,6.1-0.6,8.5,2.1c1.6,1.7,3.9,1.5,6,1.3  c1.6-0.1,3.3-0.2,5-0.1c6.4,0.4,12.8,1.4,19.2,1.3c5.9,0,11.8-1.2,17.8-1.7c5.2-0.4,10.3-1.2,15-3.7c3.1-1.7,6.5-2.3,9.9-2.4  c8.2-0.3,16.3-0.7,24.5-0.8c7-0.1,14.1,0.2,21.1,0.3c3.4,0,6.8,0,10.2,0.1c2.2,0.1,4.4,0.3,6.5,0.6c10.4,1.6,20.8,2.8,31.3,2.5  c3.5-0.1,7-0.8,10.5-0.8c10.8,0.1,21.6,0.5,32.4,0.8c1,0,2,0.6,2.9,1c1,0.4,2,1.1,3,1.3c6.9,0.8,13.8,1.6,20.8,0.9  c2.6-0.2,5.2,0,7.8,0.1c6.8,0.1,13.5,0.1,20.3,0.2c6.2,0.1,12.5-0.1,18.7,0.4c5.5,0.4,10.9,1.7,16.3,2.1c4.8,0.4,9.1,1.7,13.1,4.3  c1,0.7,2.1,1.2,3,1.9c5.8,4.3,12.2,5.8,19.3,5.4c1.5-0.1,2.4-0.6,2.9-1.9c0.8-2.4,1.7-4.8,2.6-7.1c1.2-3.2,1.4-3.3,4.7-3.4  c11.5-0.2,23.1-0.4,34.6-0.8c12.5-0.3,24.9-0.9,37.4-1.2c5.2-0.1,10.4,0.1,15.5-0.1c4-0.2,7.9-0.7,11.9-1.2c0.7-0.1,1.3-0.8,2-1.3  c-0.1-0.3-0.2-0.6-0.3-0.9c2.9-0.1,5.8-0.4,8.7-0.4c2.8,0,5.7,0.7,8.5,0.6c5.6-0.1,11.1-0.5,16.7-0.8c3.8-0.2,7.7-0.7,11.5-0.8  c6.3-0.1,12.7-0.5,18.9,0.4c10.1,1.4,20.2,2.1,30.3,2.5c8.3,0.3,16.7,0.8,25,1.3c10.4,0.5,20.8,1.1,31.2,1.5  c3.6,0.2,7.3-0.1,11,0.1c1.4,0.1,2.8,0.7,4.2,1c1.7,0.3,3.3,0.8,5,0.9c5.4,0.2,10.7,0.1,16.1,0.3c3.6,0.1,7.1,0.7,10.7,0.8  c1.9,0.1,3.8-0.3,5.6-0.7c3.9-0.9,7.8-2.4,11.7-2.9c10.7-1.2,21.4-2,32.1-2.9c10.4-0.8,20.8-1.7,31.1-2.4c3.2-0.2,6.5,0.1,9.8,0.1  c3.4,0,6.8,0,10.1,0c6,0,11.9-0.4,17.8,0.2c5.4,0.6,10.8,2.2,16.2,3.4c1.6,0.4,3.2,0.2,4.8-0.4c7.5-2.7,15.2-4.9,23.3-4.6  c3.2,0.1,6.5,0.3,9.7,0.3c2.1,0,4.2-0.3,6.4-0.3c13-0.3,26,0.1,39,1.2c5.4,0.5,10.8,1.1,16.2,1.4c6.6,0.4,13.2,0.7,19.9,0.9  c3.5,0.1,7-0.2,10.5-0.4c1.3-0.1,2.6-0.3,4-0.3c5.7-0.1,11.5-0.5,16.1,3.9c0.6,0.5,1.3,1,1.9,1.4c2.6,1.8,5.3,3.1,8.5,1.5  c0.5-0.3,1.6,0,2.2,0.3c1.1,0.7,2,0.5,2.9-0.2c1.6-1.2,3-2.7,4.7-3.7c1.2-0.7,2.7-1.1,4.1-1.2c1.8-0.1,3.7,0.2,5.6,0.3  c6.6,0.4,13.2,0.7,19.9,1.1c8.5,0.5,16.9,1.3,25.4,1.6c4.8,0.2,9.7-0.2,14.5-0.3c7.5-0.2,15-0.6,22.5-0.8c2.2-0.1,4.6-0.3,6.5,0.4  c1.7,0.7,3.2,1.1,4.9,1.1c1.9-0.1,3.8-0.3,5.8-0.3c8.9,0,17.8,0.1,26.7-0.1c7.8-0.2,15.6-0.8,23.4-1.1c5-0.2,9.9-0.3,14.9-0.4  c4.8,0,9.6,0.5,14.3,0.2c12.2-0.8,24.4-2.2,36.7-1.9c4.8,0.1,9.5-0.5,14.3-0.8c6.9-0.4,13.9-0.8,20.8-1.3  c8.2-0.5,16.5-0.9,24.6,0.9c6.9,1.5,13.7,2,20.7,2.1c5.3,0.1,10.6,1,15.8,1.3c4.5,0.2,9,0,13.5,0c-0.1-0.5-0.2-0.8-0.2-1.3  c0.9,0,1.6,0,2.3,0c4.8,0.3,9.5,1,14.3,1c11.5,0.2,23.1,0.1,34.6,0.1c0.9,0,1.7,0,2.6,0.1c6.4,0.5,12.8,1.4,19.2,1.4  c6-0.1,12-1.3,18-1.7c6.1-0.4,11.8-2,17.2-4.6c0.4-0.2,0.8-0.2,1.5-0.4c0.1,1.1,0.2,2,0.2,2.9c0,23.4,0,46.8,0,70.2  C2439.9,105.7,2440,106.9,2440,108z"></path>	<g>		<g>			<g>				<path class="st7" d="M158.5,29.5c-1.1,0-2.2,0-3.2,0l-1.5,0l-1.7-0.1c-2.3-0.1-4.6-0.1-7,0c-14.3,0.6-28.8,1.1-43.1,1.8     l-21.6,1.1l-10.8,0.5L64,33.2c-2.1,0.2-4,0.5-5.5,0.7l-1.1,0.1l-0.5,0l-0.6,0l-2.7,0.1l-5.4,0.1l-10.8,0.2     c-3.6,0.1-7.3,0.2-11,0.5c-3.3,0.2-6.6,0-10-0.3c-3.5-0.4-7.1-1-10.8-1.3C1.7,33-2.1,33-5.7,33.1c-3.7,0.1-7.2,0.2-10.8,0.2     l-10.8,0.1l-8.3,0c-1.3,0-2.8-0.1-4.3,0c-1,0-2,0-3,0.2c-1,0.2-1.9,0.6-2.7,1.1c-1.6,1.1-2.7,2.9-3.5,4.7l-0.4,1.2l-0.4,1     l-0.6,2c-0.5,1.5-1,3-1.7,4.5c-0.4,0.7-0.8,1.4-1.6,1.7c-0.4,0.1-0.8-0.1-1.1-0.4c-0.3-0.3-0.5-0.6-0.7-1l-2.2-4.2l-3.8-7.4     l-1.1-2.2c-0.5-0.9-1-1.8-1.7-2.5c-0.7-0.7-1.5-1.3-2.5-1.6c-0.9-0.3-1.9-0.4-2.9-0.5l-24.7-0.7l-7.2-0.2     c-2.5-0.1-5.1,0.1-7.5,0.3c-2.4,0.2-4.7,0.4-6.9,0.4c-0.6,0-1.1,0-1.6,0l-1.7-0.1l-3.5-0.3c-9.5-0.8-18.9-2.2-28.9-2.6l-7.2,0     c-2.4,0-4.9,0-7.2-0.1c-2.4-0.1-4.8-0.2-7.2-0.2c-2.5-0.1-4.9,0.1-7.3,0.1l-14.4,0.4l-3.6,0.1c-1.2,0-2.4,0-3.7,0.1l-3.6,0.3     c-0.6,0-1.1,0-1.6,0l-0.5,0c-0.2,0-0.4,0-0.6,0c-0.4,0-0.8,0-1.1,0.1c-1.6,0.2-3.2,0.6-4.6,1.2c-1.5,0.7-2.4,1.1-3.5,1.6     c-2.2,0.9-4.5,1.4-6.8,1.8c-1.2,0.2-2.4,0.3-3.6,0.4c-1.2,0.1-2.3,0.1-3.8,0.2c-2.7,0.1-5.3,0.4-7.8,0.6c-2.5,0.2-5,0.4-7.4,0.4     c-2.3,0-4.8-0.1-7.3-0.3c-2.5-0.2-5-0.4-7.6-0.6c-2.6-0.2-5.1-0.4-8.1-0.3c-7.2,0.3-14.3-0.8-21.4-1.7     c-3.6-0.5-7.1-0.9-10.7-1.1c-0.9,0-1.8-0.1-2.6-0.1l-2.4,0c-1.6,0-3.4,0-5.1,0.1l-0.8,9c2.7,0.3,5.4,0.6,8.1,0.8     c2.7,0.1,5.3,0.2,7.9,0.3c5.3,0.1,10.5,0.3,15.6,0.4c2.6,0.1,5.2,0.1,7.7,0.2c1.3,0,2.6,0.1,3.8,0.1c1.1,0.1,2.2,0.1,3.5,0.3     c5,0.5,10.1,1.3,15.4,1.5c2.7,0.1,5.5,0.1,8.1-0.1c2.6-0.2,5.2-0.5,7.7-0.7c1.2-0.1,2.5-0.2,3.7-0.3l1.8-0.1     c0.7,0,1.4-0.1,2-0.2c2.7-0.2,5.5-0.7,8.2-1.4c1.4-0.4,2.8-0.8,4.1-1.3c0.7-0.3,1.4-0.5,2-0.8l1.8-0.8c0.8-0.4,1.6-0.6,2.3-0.7     c0.4,0,0.7-0.1,1.1,0l0.3,0l0.6,0l1.2,0c1.5,0,2.8-0.1,4-0.2l0.8,0l0.9,0l1.9,0c2.5,0,5.1,0.1,7.7,0.1l11.5,0.1l2.9,0     c1,0,1.8,0,2.7,0.1c1.8,0.1,3.6,0.2,5.6,0.3c1.9,0.1,4.1,0.2,5.9,0.2l5.7,0.1l2.9,0l1.4,0c0.5,0,0.9,0.1,1.4,0.1l5.4,0.4     c1.8,0.1,3.7,0.4,5.6,0.6l5.7,0.7c3.8,0.4,7.7,0.9,11.7,1.2l3,0.2l1.5,0.1c0.6,0,1.2,0,1.7,0c2.3,0,4.4-0.1,6.3-0.3     c2-0.2,3.8-0.3,5.5-0.4c0.9,0,1.6-0.1,2.5-0.1l2.9,0.1c4.8,0.1,9.6,0,14.4-0.2l7.2-0.3l3.6-0.2l1.8-0.1l0.9,0     c0.2,0,0.2,0,0.3-0.1c0.2-0.1,0.5-0.1,0.8-0.1c0.3,0.1,0.5,0.2,0.6,0.4c0.1,0.1,0.2,0.2,0.2,0.3l0.7,1.2l1.4,2.4     c0.9,1.6,1.8,3.2,2.7,4.8l2.1,3.9c0.7,1.3,1.4,2.7,2.1,3.9c1.1,1.7,2.3,2.7,3.4,3.6c0.6,0.4,1.2,0.7,2.1,0.9     c0.9,0.2,1.8,0.1,2.6-0.2c0.8-0.3,1.4-0.7,2.1-1.1c0.6-0.5,1.2-1,1.8-1.7c1.1-1.3,2.1-3.1,3-5.1c0.4-1,0.8-2,1.2-3.1l0.6-1.6     l0.5-1.4l0.6-1.8L-42,43l0.1-0.2l0-0.1l0.1-0.2c0.2-0.4,0.4-0.7,0.8-0.9c0.4-0.2,0.7-0.1,1.2-0.1c1.2,0,2.5,0.1,3.9,0.2l4.1,0.1     l8.1,0.3l8.1,0.3c2.7,0.1,5.5,0.2,8.2,0.2c2.7,0.1,5.3,0.2,7.8,0.3c2.5,0.2,4.9,0.5,7.4,1c5.1,0.8,10.7,2.1,17,2.1l4.2-0.1     l3.9,0l8,0.1l8.1,0.1l4.1,0l2.1,0l2.2,0c2.7-0.1,4.9-0.5,6.7-0.7c0.4,0,0.8-0.1,1.2-0.1l1.5-0.1l3.1-0.1     c4.2-0.2,8.4-0.4,12.6-0.7c8.4-0.5,16.8-1.1,25.2-1.7l25.2-1.9l12.6-0.9l6.3-0.5c2.1-0.1,4.3-0.3,6.5-0.6l1.5-0.2L158.5,29.5z"></path>				<path class="st3" d="M160,42.8c-1.4,0.2-2.8,0.3-4.3,0.4l-1.1,0.1l-0.6,0l-0.5,0l-2,0l-8,0.2l-15.9,0.3l-15.8,0.3L96,44.6     l-31.4,0.8c-1,0.1-2.2,0.2-3.6,0.4c-0.7,0.1-1.4,0.2-2.2,0.2l-1.2,0.1l-1.2,0c-2.7,0-5.4,0-8,0c-5.3,0-10.6-0.1-15.7,0l-3.9,0.1     l-1.9,0.1l-1.1,0c-0.4,0-0.8,0-1.2,0c-3.1,0-6-0.3-8.8-0.6c-2.8-0.4-5.4-0.8-7.9-1.2c-2.5-0.4-4.8-0.6-7.3-0.7     c-4.9-0.3-10.1-0.1-15.6-0.1l-15.8-0.1l-4,0l-4-0.1l-1,0c0,0,0,0,0,0.1c-0.2,0.5-0.4,1-0.6,1.6l-0.7,2.2     c-0.4,1.3-0.8,2.5-1.3,3.7c-0.9,2.4-2,4.8-3.2,6.6c-1.3,1.8-2.7,3-4.2,3.8c-0.8,0.4-1.6,0.7-2.5,0.8c-0.9,0.2-2,0.2-2.9,0     c-1.8-0.3-2.8-0.8-4.4-2c-0.7-0.6-1.5-1.4-2.1-2.4c-0.7-1-1.2-2.3-1.9-3.4l-3.3-6.3l-4.1-7.9l-29.6-0.7l-1,0c-0.3,0-0.6,0-0.9,0     c-0.5,0-1.1,0-1.6,0c-1.1,0-2.3,0.1-3.5,0.2c-2.5,0.2-5.2,0.4-8.1,0.5c-0.7,0-1.5,0-2.3-0.1l-2-0.1l-3.9-0.3     c-2.6-0.2-5.2-0.5-7.8-0.8l-7.6-0.8l-3.7-0.4c-1.3-0.1-2.4-0.2-3.6-0.3l-3.6-0.3l-1.8-0.1l-1.9,0l-7.6,0c-2.4,0-5.3-0.1-7.8-0.2     l-3.7-0.1l-1.8,0l-0.9,0l-0.9,0l-15.2,0.4l-7.6,0.2l-1.8,0.1c-0.5,0-1,0.1-1.6,0.1c-1.2,0.1-2.6,0.2-4.3,0.3c-1.1,0-1.1,0-1.4,0     c-0.3,0-0.5,0.1-0.8,0.1c-0.3,0.1-0.6,0.2-0.9,0.3c-0.2,0.1-0.3,0.1-0.5,0.2l-0.7,0.3c-2.8,1.4-5.6,2.4-8.5,3.2     c-2.9,0.8-5.8,1.2-8.6,1.5l-3.8,0.3l-3.7,0.4c-2.5,0.3-5.1,0.7-7.9,0.9c-1.4,0.1-2.8,0.2-4.3,0.2c-1.4,0-2.8,0-4.2-0.1     c-5.5-0.2-10.6-0.9-15.5-1.3c-0.6-0.1-1,0-1.6-0.1l-0.8,0l-0.9,0l-3.8,0l-7.7,0l-15.3,0l-7.7,0c-2.8-0.1-5.5-0.3-8.1-0.5     l1.2-13.9c2.5,0.2,4.9,0.4,7.2,0.5l7.6,0l15.2,0l7.6,0l3.8,0l1,0l1.1,0c0.7,0,1.6,0.1,2.2,0.1c5.3,0.4,10.3,1.1,14.9,1.2     c1.2,0,2.3,0.1,3.4,0c1.1,0,2.2-0.1,3.4-0.2c2.3-0.2,4.7-0.5,7.3-0.8l3.9-0.5l3.8-0.4c2.3-0.2,4.4-0.6,6.4-1.1     c2-0.5,4-1.2,5.7-2.1l1-0.5c0.4-0.2,0.8-0.4,1.2-0.5c0.9-0.3,1.8-0.7,2.7-0.9c1-0.2,2-0.4,3-0.5c0.9-0.1,2.3-0.1,2.4-0.1     c0.9,0,2-0.1,3.3-0.2c0.7-0.1,1.4-0.1,2.2-0.1l2-0.1l7.7-0.2l15.3-0.4l1,0l1.1,0l2.1,0l3.9,0.1c2.6,0.1,4.8,0.2,7.5,0.2l7.7,0     l1.9,0l2,0.1l4,0.3c1.3,0.1,2.7,0.2,4,0.3l3.9,0.4l7.6,0.8c2.5,0.3,5,0.5,7.4,0.7l3.7,0.3l1.8,0.1c0.5,0,1,0,1.6,0     c2.1,0,4.5-0.2,7.1-0.4c1.3-0.1,2.7-0.2,4.1-0.3c0.7,0,1.4,0,2.2,0c0.4,0,0.7,0,1,0l1,0l31.5,0.7c2.6,0.1,5.1,1,7,2.7     c1,0.8,1.8,1.9,2.4,3l1.4,2.7l3.6,7l0.4,0.7l0.5-1.6c0.2-0.7,0.5-1.4,0.7-2.1c0.2-0.5,0.4-1.1,0.7-1.7c0.3-0.6,0.6-1.2,0.9-1.7     c1.4-2.2,3.4-4,5.8-4.9c1.2-0.5,2.5-0.7,3.8-0.8l1,0l0.9,0l1.1,0l3.9,0.1l4,0l15.9,0.1c5.1,0.1,10.4-0.1,16.1,0.2     C4.1,30,7,30.3,9.7,30.7c2.7,0.4,5.3,0.8,7.7,1.1c2.4,0.3,4.8,0.5,7,0.5l1.7,0l2-0.1l4.1-0.1c5.4-0.1,10.8,0,16,0     c2.6,0,5.2,0,7.8,0l0.8,0l0.7,0c0.5,0,1.1-0.1,1.7-0.2c1.2-0.1,2.7-0.3,4.3-0.4l32-0.9l15.9-0.4l15.9-0.3l15.8-0.3l7.9-0.2l2,0     l0.5,0l0.4,0l0.9,0c1.2-0.1,2.4-0.2,3.6-0.3L160,42.8z"></path>			</g>			<g>				<path class="st7" d="M615.2,27c-4-0.4-8.1-0.9-12.2-1.1c-6.4-0.3-12.8-0.8-19.4-1.1l-9.9-0.4l-4.9-0.2l-4.9,0l-19.6,0.2l-0.7,0     l-0.8,0c-0.5,0-1,0.1-1.4,0.1l-2.3,0.2c-0.3,0-0.6,0-0.9,0.1l-1.2,0l-2.4,0c-1.6,0-3.1,0-4.5-0.1l-1.1-0.1     c-0.5,0-1.1-0.1-1.6-0.1c-1.1,0-2.2,0-3.3,0.2c-2.2,0.3-4.3,1-6.1,1.9c-1.8,0.9-3.5,2-5,3.2c-1.5,1.2-2.6,2.3-3.9,3.4     c-1.2,1.1-2.4,2.2-3.7,3.4l-1.8,1.7l-1.7,1.7l-0.2,0.2l-0.1,0.1l-0.2,0.2l-0.3,0.3c-0.2,0.2-0.5,0.4-0.8,0.5     c-0.3,0.1-0.6,0-0.9-0.1l-0.4-0.2l-0.6-0.3l-2.2-1c-0.8-0.4-1.5-0.7-2.3-1.1c-3.1-1.4-6.6-2.6-10.3-3.2     c-0.9-0.1-1.9-0.2-2.8-0.3c-0.8,0-1.4-0.1-2.2-0.2c-1.4-0.2-2.9-0.4-4.3-0.8c-2.8-0.7-5.7-1.8-8.5-3.2c-0.6-0.3-1.6-0.7-2.4-1.1     c-0.9-0.3-1.7-0.6-2.6-0.9c-1.8-0.5-3.6-0.8-5.3-1c-7.5-0.7-14.2,0.4-21.1,0.8l-20.5,1.6l-20.5,1.5l-2.6,0.2l-2.6,0.2     c-1.7,0.2-3.5,0.4-5.2,0.6l-5.1,0.7l-2.5,0.3l-0.7,0.1c-0.3,0-0.6,0.1-0.9,0.2c-0.6,0.1-1.2,0.3-1.8,0.6     c-0.2,0.1-0.5,0.2-0.7,0.4c-0.7,0.4-1.3,0.6-2,0.9c-0.7,0.2-1.4,0.4-2.1,0.5c-1.5,0.2-3.1,0.1-4.9-0.1c-0.9-0.1-1.7-0.2-2.7-0.3     c-1-0.1-2-0.2-3-0.3c-1-0.1-2-0.1-3-0.1l-2.8,0L340,35.9l-1.4,0l-0.6,0c-0.2,0-0.3,0-0.5,0c-0.7-0.1-1.5-0.3-2.4-0.5l-1.3-0.3     c-0.3-0.1-0.7-0.2-1.2-0.3c-0.5-0.1-1-0.3-1.6-0.4c-0.6-0.1-1.3-0.2-2-0.3c-5.1-0.1-9.9,0.2-14.6-0.1l-14.5-0.8l-29.1-1.6     c-2.3-0.1-4.6-0.3-7-0.5c-2.3-0.2-4.6-0.3-6.9-0.5c-4.6-0.4-9.2-0.9-13.7-1.5c-2.3-0.3-4.5-0.6-6.8-1l-3.4-0.5l-1.8-0.3     c-0.6-0.1-1.2-0.2-1.9-0.2c-5-0.5-9.8-0.3-14.4,0.1c-0.8,0.1-1.6,0.1-2.4,0.1c-0.8,0-1.7,0-2.5,0c-1.7,0-3.3,0-5-0.1     c-3.3-0.1-6.5-0.3-9.7-0.6c-3.2-0.3-6.2-0.6-9.3-0.6c-0.8,0-1.5,0-2.3,0c-0.2,0-0.4,0-0.5,0l-0.4,0l-0.9,0c-1.3,0-3-0.2-5.2,0     l-0.3,9c1,0.1,2.2,0.3,3.4,0.4c0.6,0.1,1.2,0.2,1.9,0.2c0.3,0,0.7,0.1,1,0.1l0.5,0l0.5,0c2.4,0,4.8,0,7.2,0     c4.8,0.1,9.6-0.3,14.1-0.5c2.3-0.1,4.6-0.2,6.8-0.2c2.3,0,4.6,0,6.9,0c2.3,0,4.5,0,6.6,0.2c1.1,0.1,2.2,0.2,3.2,0.3     c0.5,0.1,1.1,0.1,1.6,0.2l1.6,0.3c9.2,1.5,18.4,2.3,27.5,3c9.1,0.7,18.2,1.5,27.4,2.4c6.9,0.7,13.9,1.3,20.9,1.8l5.2,0.4     c1.7,0.1,3.7,0.2,5.5,0.3c3.6,0.1,7.1,0,10.3,0.1l0,0c0,0,0,0,0.1,0c0.1,0,0.4,0.1,0.7,0.2c0.4,0.1,0.8,0.3,1.4,0.4     c0.3,0.1,0.6,0.2,1,0.2l0.5,0.1c0.8,0.2,1.7,0.4,2.9,0.6c0.6,0.1,1.2,0.2,2,0.2l0.5,0l0.4,0l0.6,0l10.4,0.1l5.1,0.1     c1.5,0,3,0.1,4.5,0.3c1.6,0.2,3.6,0.5,5.8,0.5c2.1,0.1,4.6-0.1,7.1-0.7c0.9-0.2,1.7-0.5,2.6-0.9c0.4-0.2,0.8-0.4,1.2-0.6     c0.2-0.1,0.4-0.2,0.6-0.3l0.3-0.2l0.1-0.1l0.1,0c0,0,0.1,0,0,0c0,0,0-0.1,0.1-0.1l2.6-0.5l5.2-1.1l5-1l2.5-0.5l2.6-0.4     c7-1.1,13.9-2.2,21-2.7l14.5-0.9l14.4-0.7c4.8-0.2,9.3-0.1,13,0.9c0.9,0.3,1.8,0.6,2.7,1c0.4,0.2,0.8,0.4,1.2,0.6l1.7,0.9     c2.3,1.2,4.7,2.3,7.4,3.3c2.6,0.9,5.4,1.7,8.2,2c0.4,0.1,0.7,0.1,1.1,0.1l0.9,0.1c0.4,0,0.9,0.1,1.3,0.2     c0.9,0.2,1.8,0.4,2.7,0.7c1.8,0.6,3.8,1.5,5.7,2.5c1,0.5,2,1,3,1.6l1.2,0.6l0.6,0.4l0.8,0.4c0.5,0.2,1.1,0.5,1.6,0.7     c0.5,0.2,1.1,0.3,1.6,0.5c2.2,0.5,4.5,0.1,6.5-1c1-0.5,1.9-1.3,2.8-2.1l1.9-1.8c1.7-1.6,3.5-3.1,5.3-4.6l2.7-2.3     c1-0.8,1.7-1.4,2.4-1.9c1.5-1.1,2.9-1.7,4.1-2c0.5-0.1,1-0.2,1.5-0.2c0.2,0,0.5,0,0.8,0l0.4,0l0.2,0l0.4,0     c2.2,0.2,4.3,0.3,6.3,0.2l2.9,0l1.6,0c0.6,0,1.2-0.1,1.8-0.1l2.6-0.3c0.5-0.1,1.6-0.1,2.5-0.1c7.5-0.2,15-0.4,22.6-0.7l11.2,0.1     c3.8,0,7.5,0,11.3,0.1c7.6,0.2,15.2,0.4,22.9,0.1l1.3-0.1L615.2,27z"></path>				<path class="st3" d="M615.1,40.4c-10.9-0.1-21.5-1.4-31.7-2c-5.1-0.3-10.2-0.7-15.4-1l-15.6-0.2l-7.8-0.1l-0.9,0     c-0.2,0-0.4,0-0.6,0c-0.5,0-1.1,0.1-1.7,0.1c-0.7,0.1-1.5,0.1-2.4,0.1c-1,0-1.5,0-2.2,0c-2.6,0-5.5,0-8.5-0.3l-0.6-0.1l-0.3,0     c-0.2,0-0.4,0-0.5,0c-0.3,0-0.7,0-1,0c-0.7,0.1-1.3,0.2-2,0.5c-1.4,0.5-3,1.5-4.6,3c-2,1.6-3.9,3.3-5.7,5     c-0.9,0.8-1.9,1.7-2.8,2.5c-0.6,0.5-2.9,3.1-4.9,4.2c-1.1,0.6-2.2,1-3.5,1.2c-1.2,0.2-2.5,0.1-3.6-0.2c-1.2-0.2-2.4-0.9-3.5-1.4     l-2.4-1.2c-4.4-2.3-8.5-4-12.1-4.3l-0.9-0.1c-0.4,0-0.8-0.1-1.2-0.1c-0.8-0.1-1.6-0.2-2.4-0.3c-1.6-0.3-3.1-0.6-4.6-1.1     c-3-0.9-5.7-2-8.3-3.2l-1.9-0.9l-0.5-0.2l-0.3-0.1c-0.2-0.1-0.4-0.2-0.6-0.3c-0.8-0.4-1.7-0.6-2.6-0.9c-1.8-0.5-3.9-0.7-6.2-0.7     c-2.3,0-4.8,0-7.3,0.3L436,39l-31.1,2.5l-7.8,0.6l-3.9,0.3c-1.3,0.1-2.5,0.2-3.7,0.4c-2.5,0.3-5,0.6-7.6,1     c-2.3,0.3-6.4,0.9-5.2,0.7l0.1,0l0,0l-0.1,0l-0.1,0.1l-0.2,0.1l-0.5,0.3l-1,0.5c-0.7,0.3-1.3,0.6-2,0.8     c-1.4,0.4-2.7,0.7-4.1,0.9c-2.7,0.3-5,0.1-7.1-0.1l-1.5-0.2l-1.4-0.2c-0.8-0.1-1.6-0.2-2.4-0.2c-0.8-0.1-1.6-0.1-2.5-0.1l-2.8,0     l-11.3-0.2l-1.4,0l-0.4,0l-0.6,0c-0.4,0-0.8-0.1-1.1-0.1c-1.4-0.2-2.6-0.5-3.5-0.7l-1.5-0.3c-0.7-0.2-1.3-0.3-1.7-0.5     c-0.4-0.1-0.7-0.2-0.9-0.3c0,0-0.1,0-0.1,0c0,0,0,0,0,0l0,0c-2.8-0.1-6,0-9.3,0c-1.6,0-3.4,0-5.1-0.1l-4.8-0.3l-19.1-1     l-38.1-1.9c-6.5-0.4-13-0.9-19.5-1.8l-2.4-0.3c-0.7-0.1-1.4-0.2-2.1-0.2c-1.4-0.1-2.8-0.2-4.3-0.2c-2.9-0.1-6,0-9.2,0.1     l-2.4,0.1l-2.2,0.1c-1.5,0.1-3,0.2-4.6,0.3l-9.5,0.7c-3.3,0.2-6.6,0.3-9.9,0.4l-2.5,0.1c-0.3,0-1,0-1.5,0c-0.5,0-1-0.1-1.5-0.1     c-1.9-0.2-3.3-0.4-4.4-0.4l0.5-14c2.2,0.1,3.9,0.4,5.1,0.5c0.3,0,0.6,0,0.9,0.1c0.3,0,0.4,0,0.9,0l2.3-0.1     c3-0.1,6.1-0.2,9.1-0.4l9.5-0.7c1.6-0.1,3.3-0.2,4.9-0.3l2.5-0.1l2.4-0.1c3.2-0.1,6.5-0.2,9.9-0.1c1.7,0,3.5,0.1,5.2,0.3     c0.9,0.1,1.8,0.2,2.7,0.3l2.3,0.3c6.1,0.8,12.3,1.3,18.5,1.7l38,1.9l19,1l4.7,0.3c1.5,0.1,2.9,0.1,4.5,0.1c3.1,0,6.2-0.1,9.8,0     c0.5,0,0.9,0.1,1.4,0.1c0.2,0,0.5,0.1,0.7,0.1l0.6,0.1c0.8,0.2,1.3,0.4,1.8,0.5c0.5,0.1,0.8,0.2,1,0.3l1.3,0.3     c0.9,0.2,1.6,0.4,2,0.4l0.3,0l0.5,0l1.4,0l11.2,0.2l2.8,0c1,0,2.1,0.1,3.1,0.1c1.1,0.1,2.1,0.2,3.2,0.3l1.4,0.2l1.3,0.1     c1.6,0.2,3,0.2,4.1,0.1c0.5-0.1,1-0.2,1.4-0.3c0.2-0.1,0.4-0.1,0.6-0.2l0.3-0.1l0.1-0.1l0.3-0.1c1.1-0.7,2.4-1.1,3.6-1.4     c1.6-0.3,1.9-0.3,2.6-0.4l3.9-0.5c2.6-0.4,5.3-0.7,8-1c1.3-0.1,2.8-0.3,4.1-0.4l3.9-0.3l7.8-0.6l31.4-2.5l7.9-0.6     c2.6-0.2,5.4-0.3,8.3-0.3c3,0.1,6.1,0.3,9.3,1.1c1.6,0.4,3.2,0.9,4.8,1.6c0.4,0.2,0.8,0.4,1.2,0.5l1,0.5l1.6,0.8     c2.1,1,4.2,1.8,6.3,2.4c1,0.3,2.1,0.5,3.1,0.7c0.5,0.1,1,0.2,1.5,0.2c0.3,0,0.5,0.1,0.8,0.1l1,0.1c3.4,0.3,6.6,1.2,9.4,2.2     c2.9,1.1,5.5,2.3,7.9,3.6l1.1,0.6l0.9-0.8c1-0.9,2-1.9,3-2.8c2-1.8,4.1-3.6,6.1-5.3c2.3-1.9,5.1-3.9,8.6-5.3     c1.7-0.7,3.6-1.1,5.6-1.4c1-0.1,1.9-0.1,2.9-0.1c0.5,0,1,0,1.4,0.1l1.1,0.1c2.1,0.2,4.5,0.2,7.1,0.3c1.6,0,1.9,0,3.3-0.1     c0.6-0.1,1.3-0.1,2.2-0.2c0.4,0,0.8,0,1.3,0l1.1,0l7.9,0.1l15.8,0.2c5.3,0.3,10.6,0.7,15.9,1c10.6,0.7,20.9,1.9,30.9,2     L615.1,40.4z"></path>			</g>			<g>				<path class="st7" d="M1058.1,30.5c-1.3-0.2-2.5-0.2-3.6-0.2l-1.6,0l-1.4,0l-0.1,0l0,0l0,0l0,0c0,0,0,0,0,0c0,0,0,0,0,0     c-0.4-0.4-0.9-0.8-1.4-1.1c-1.3-0.9-2.9-1.6-4.3-1.9c-1.4-0.3-2.7-0.4-3.8-0.4c-1.1,0-1.9,0.1-2.6,0.1l-1,0l-1.1,0l-8.9,0.2     l-8.9,0.2c-3,0.1-6.1,0.3-9.1,0.4l-2.3,0.1l-1.1,0.1l-0.6,0l-0.1,0l-0.2,0c-0.2,0-0.3,0-0.5,0.1c-0.6,0.1-1.1,0.2-1.5,0.4     c-1.6,0.6-2.3,1.3-3,1.9c-0.1,0.1-0.4,0.4-0.4,0.4l-0.1,0.1l0,0l0,0l0,0.1c-0.1,0.1-0.1,0.2-0.2,0.2c-0.1,0.1-0.2,0.1-0.3,0.1     l-0.1,0c0,0,0,0-0.1,0l-0.3,0l-1.1,0l-4.4-0.1l-8.8-0.3c-0.8,0-1.4,0-2.1-0.1l-2.2-0.2c-1.5-0.1-3.2-0.2-4.9-0.2l-2.3,0.1     l-2.1,0c-1.4,0-2.8,0-4.2-0.1c-2.8-0.1-5.6-0.4-8.4-0.8c-0.7-0.1-1.4-0.2-2.1-0.3l-2.2-0.4c-1.6-0.3-3.2-0.5-4.8-0.7     c-3.2-0.3-6.4-0.4-9.5-0.3c-6.2,0.2-12.2,0.9-18.1,1.4l-8.9,0.8l-2.2,0.2l-0.6,0.1c-0.2,0-0.5,0.1-0.7,0.1     c-0.5,0.1-1,0.2-1.4,0.3c-0.9,0.2-1.7,0.5-2.5,0.8l-2.2,0.9c-0.8,0.3-1.6,0.8-2.3,1.3c-0.6,0.4-0.9,0.7-1.2,0.9l-0.3,0.2     l-0.2,0.1c-0.2,0.1-0.3,0.2-0.5,0.2c-0.3,0.1-0.7,0.2-1.1,0.2c-0.8,0-1.5-0.3-2.1-0.8c-0.1-0.1-0.4-0.3-0.6-0.4     c-0.9-0.6-1.9-1.1-2.9-1.5c-1-0.4-2.1-0.7-3.1-0.9c-2.1-0.3-4-0.3-5.9-0.2c-0.9,0.1-1.8,0.2-2.7,0.2l-2.5,0.2l-5.1,0.4l-5.1,0.4     c-1.7,0.1-3.4,0.1-5.1,0.2l-10.2,0.3c-3.4,0.1-6.8,0.3-10.2,0.3l-10.3-0.1c-7,0-13.9,0.6-20.6,0.9c-1.6,0.1-3.3,0.1-4.9,0.2     c-1.6,0.1-3.3,0-5,0l-9.9,0l-9.9,0l-2.5,0l-1.3,0l-1.3,0.1l-2.5,0.2l-1.2,0.1c-0.4,0-0.8,0-1,0c-0.4,0-0.7-0.1-1.2-0.2     c-0.5-0.2-1.6-0.6-2.6-0.7c-1.4-0.2-2.6-0.3-3.9-0.4c-0.7,0-1.3-0.1-2-0.1l-1,0l-0.9,0l-7.5,0.2l-14.9,0.5     c-2.5,0-5.1,0.3-7.6,0.4c-2.3,0.2-4.6,0.2-6.9-0.1c-4.6-0.5-9.3-1.7-14-3.1c-4.4-1.3-9.1-3-14.5-3.2c-1.3-0.1-2.7,0-4,0.1     c-1.3,0.1-2.5,0.3-3.7,0.4c-2.4,0.3-4.6,0.7-6.6,0.9c-1,0.1-2.1,0.1-3.3,0.1l-3.4,0.1c-2.3,0-4.5,0-6.8,0     c-2.3,0-4.5-0.1-6.7-0.2l-6.8-0.3c-1.6,0-3.3-0.2-4.9-0.4c-1.6-0.2-3.4-0.4-5-0.6c-3.2-0.4-6.5-1-9.7-1.5     c-3.3-0.5-6.6-0.8-9.9-0.9c-0.8,0-1.7,0-2.5,0c-0.8,0-1.5,0.1-2.3,0.1c-1.5,0.1-3,0.3-4.6,0.5l-0.1,9c2.4,0.1,4.9,0.2,7.3,0.1     c2.4,0,4.7,0,7,0.1c4.7,0.1,9.3,0.3,13.9,0.5c2.4,0.1,4.5,0.3,6.8,0.5c2.3,0.2,4.6,0.5,6.9,0.7c2.3,0.2,4.7,0.4,7.1,0.5     c2.3,0.1,4.7,0.2,7,0.2c2.3,0,4.7,0,7-0.1c1.2-0.1,2.3-0.1,3.6-0.2c1.3-0.1,2.5-0.3,3.7-0.5c2.4-0.4,4.5-0.8,6.6-1     c0.5-0.1,1-0.1,1.5-0.1c0.4,0,0.9,0,1.4,0c0.9,0,1.8,0.1,2.8,0.2c3.8,0.6,7.8,2.1,12.4,3.6c4.5,1.5,9.4,2.8,14.6,3.3     c2,0.2,4.1,0.3,6.2,0.2l5.1-0.2l10.8,0l10.8-0.1l2.7,0l1.3,0c0.4,0,0.7,0,1.1,0c0.7,0,1.4,0.1,2.2,0.2L766,44l1.1,0.1     c0.1,0-0.3-0.1,0.6,0.2c0.2,0.1,0.6,0.2,0.9,0.3c0.3,0.1,0.7,0.2,1,0.3c0.7,0.2,1.4,0.2,2,0.3l1,0l0.7,0l1.3,0l2.3-0.1     c0.7,0,1.3-0.1,1.9-0.1l2.2,0l9,0l9-0.1l4.5,0c1.5,0,3,0,4.5-0.1c7.9-0.3,15.5-1.6,22.8-2.4c3.7-0.4,7.5-0.6,11.4-0.9     c3.9-0.2,7.7-0.6,11.6-0.6l10.3-0.2c1.7,0,3.4,0,5.2-0.1l5.2-0.2l10.1-0.4c1.5,0,2.7,0.1,3.7,0.4c0.5,0.1,0.9,0.3,1.3,0.5     c0.2,0.1,0.4,0.2,0.6,0.4l0.3,0.2c0,0,0.1,0.1,0.1,0.1l0.1,0.1l0.2,0.1c1.9,1.6,4.3,2.7,6.8,2.7c1.2,0,2.5-0.1,3.7-0.5     c0.6-0.2,1.2-0.4,1.8-0.6l0.9-0.4l0.7-0.4c1-0.6,1.6-1,2-1.3c0.1-0.1,0.1-0.1,0.1-0.1l0.1,0c0.1,0,0.1,0,0.2,0l1.7-0.6     c0.5-0.2,1-0.3,1.5-0.4c0.4-0.1,0.8-0.1,1.1-0.2l1.9-0.1l7.9-0.3c5.2-0.2,10.5-0.5,15.6-0.6c5-0.1,9.9,0.1,14.3,1     c0.6,0.1,1.1,0.2,1.7,0.3l2,0.4c1.4,0.3,2.8,0.6,4.2,0.8c2.8,0.4,5.7,0.7,8.5,0.9c1.8,0.1,3.6,0.1,5.4,0.1l2.6,0     c0.6,0,1.2,0,2,0c1.4,0.1,3.1,0.2,4.9,0.4l1.4,0.1l1.3,0l2.5,0.1l10.2,0.2c0.9,0,1.4,0.1,3.3,0c1.6-0.1,3.1-0.5,4.4-1.2     c1.4-0.7,2.6-1.7,3.6-2.8l0.2-0.2c0,0,0.1-0.1,0.1-0.1L1009,39c-0.1,0.1-0.2,0.1-0.4,0.2c-0.2,0.1-0.6,0.3-1.4,0.5     c-0.1,0-0.2,0-0.4,0l-0.1,0l0,0l0.2,0l0.3,0l9.8-0.9c3.3-0.3,6.7-0.4,10-0.7l10-0.7c0.8-0.1,1.7-0.1,2.6-0.2     c0.9-0.1,1.6-0.2,2.2-0.2c0.6,0,1.1,0,1.5,0.1c0.4,0.1,0.7,0.2,1,0.5c0.9,0.9,1.9,1.6,3.1,2c1.2,0.4,2.5,0.5,3.7,0.4     c0.3,0,0.7-0.1,0.9-0.1l0.7-0.1l1.3-0.2c0.8-0.1,1.6-0.2,2.4-0.2c0.4,0,0.8,0,1.2-0.1L1058.1,30.5z"></path>				<path class="st3" d="M1057.4,43.9c-0.6,0-1.4,0-2.2,0l-1.3,0.1l-1.6,0.1l-0.6,0l-0.7,0c-0.5,0-1,0-1.5-0.1     c-1-0.1-1.9-0.3-2.8-0.6c-1.8-0.6-3.5-1.7-4.8-3.1c0,0,0.2,0.1,0.3,0.2c0.1,0,0.1,0-0.2,0c-0.3,0-0.8,0-1.4,0l-1.1,0l-1.2,0     l-9,0l-9,0l-2.2,0l-2.2,0.1l-4.4,0.1l-4.4,0.1l-0.1,0l-0.1,0l0,0l0.2,0c0.6-0.1,1-0.2,1.3-0.3c0.7-0.2,1-0.4,1.2-0.6     c0.2-0.1,0.3-0.2,0.4-0.3l0.1-0.1l-0.3,0.3c-1,1.1-2.2,2-3.5,2.7c-1.3,0.7-2.8,1.1-4.2,1.3c-0.7,0.1-1.5,0.1-2.2,0.1l-0.8,0     l-0.6,0l-4.5-0.3l-9.1-0.5l-1.1-0.1l-1.3-0.1l-2.4-0.2c-1.5-0.2-2.8-0.3-3.9-0.3l-0.8,0l-1.2,0l-2.4,0c-1.6,0-3.2-0.1-4.8-0.2     c-3.2-0.2-6.4-0.6-9.7-1.1c-0.8-0.1-1.6-0.3-2.4-0.5l-2.3-0.5c-1.2-0.3-2.5-0.5-3.8-0.6c-2.6-0.3-5.3-0.4-8.1-0.4     c-2.8,0-5.6,0.1-8.6,0.3l-8.9,0.6l-8.9,0.6L912,41l-0.6,0l-0.2,0c-0.1,0-0.3,0.1-0.5,0.1c-0.4,0.1-0.9,0.2-1.4,0.4l-1.8,0.7l0,0     v0c0,0,0,0-0.1,0c-0.3,0.2-0.9,0.7-2,1.4l-0.8,0.4l-1,0.5c-0.6,0.3-1.3,0.5-2,0.7c-1.3,0.4-2.7,0.6-4.1,0.6     c-2.8,0-5.5-1.1-7.7-2.9l-0.2-0.2l-0.1-0.1l-0.2-0.1c-0.1-0.1-0.2-0.1-0.3-0.2c-0.2-0.1-0.4-0.2-0.7-0.3     c-0.5-0.2-1.1-0.3-1.9-0.3c-0.8,0-1.8,0-2.9,0.1l-1.8,0.2l-2,0.1l-7.8,0.5l-3.9,0.3l-3.9,0.1l-15.4,0.6     c-2.5,0.1-5.3,0.2-7.8,0.2l-7.6,0c-4.9,0-9.8,0.3-15,0.6c-2.6,0.1-5.1,0.3-7.8,0.4l-4,0.1c-1.3,0-2.6,0-3.9,0l-15.4,0l-7.7,0     l-0.9,0l-0.8,0l-1.7,0.1l-2.1,0.1l-1.2,0l-0.6,0l-0.9,0c-0.7,0-1.4-0.1-2.1-0.3c-0.3-0.1-0.7-0.2-1-0.3     c-0.3-0.1-0.7-0.2-0.9-0.3c-0.9-0.3-0.6-0.2-0.6-0.2l-1-0.1L765,44c-0.7-0.1-1.4-0.1-2-0.1l-0.9,0l-1.1,0l-2.4,0.1l-9.6,0.3     l-9.6,0.3c-1.6,0.1-3.3,0.1-4.7,0.2l-4.7,0.3c-3.8,0.2-7.5-0.1-11.1-0.6c-3.6-0.6-7-1.4-10.2-2.4c-3.2-0.9-6.1-1.9-8.8-2.4     c-1.3-0.3-2.6-0.5-3.8-0.5c-0.6,0-1.2,0-1.7,0c-0.6,0-1.1,0.1-1.8,0.1c-2.6,0.3-5.7,1.1-9.4,1.6c-0.9,0.1-1.9,0.2-2.8,0.3     l-2.5,0.2c-1.7,0.1-3.3,0.2-5,0.2c-3.3,0.1-6.7,0.1-10,0c-3.5-0.1-6.8-0.4-10-0.7c-1.6-0.1-3.1-0.3-4.7-0.4l-2.2-0.1l-2.3-0.1     c-3.2-0.1-6.3-0.1-9.5-0.1c-3.1,0-6.3,0-9.4,0.1l-4.8,0.2c-1.7,0-3.4,0.1-5.1,0l0.1-14c1.5,0,3.1,0,4.6,0l4.8-0.2     c3.3-0.1,6.6-0.1,9.9-0.1c3.3,0,6.5,0.1,9.8,0.2l2.5,0.1l2.6,0.1c1.7,0.1,3.3,0.2,4.9,0.4c3.2,0.3,6.3,0.5,9.2,0.6     c3.1,0.1,6.1,0.1,9.2,0c1.5,0,3.1-0.1,4.6-0.2l2.3-0.2c0.7-0.1,1.3-0.1,1.9-0.2c2.7-0.4,5.8-1.2,9.6-1.7c0.9-0.1,2-0.2,3-0.2     c1,0,2.1,0,3.1,0.1c2,0.1,3.9,0.4,5.8,0.8c3.6,0.8,6.8,1.8,9.8,2.7c5.8,1.7,11.4,2.8,16.6,2.5l4.9-0.3c1.7-0.1,3.3-0.1,4.9-0.2     l9.6-0.3l9.6-0.3l2.4-0.1l0.6,0l0.8,0c0.5,0,1,0,1.5,0c1,0,1.9,0.1,2.8,0.2l1.3,0.1l1.4,0.2c1.3,0.1,3,0.8,3.4,0.9     c0.2,0.1,0.1,0,0.1,0v0l0,0l0.4,0l0.8,0l1.8-0.1l2.1-0.1l1.2,0l1,0l7.6,0l15.3,0c1.3,0,2.6,0,3.8,0l3.7-0.1     c2.5-0.1,5-0.2,7.6-0.4c5.1-0.3,10.3-0.6,15.7-0.6l7.7,0c2.5,0,4.9,0,7.5-0.2l15.2-0.6l3.8-0.1l3.7-0.3l7.5-0.5     c2.4-0.1,5.2-0.6,8.7-0.4c1.7,0.1,3.7,0.4,5.6,1.1c1,0.3,1.9,0.7,2.8,1.2c0.5,0.2,0.9,0.5,1.3,0.8l0.6,0.4l0.3,0.2l0.1,0.1l0,0     l0.2-0.1l0.9-0.6l0.7-0.5c0.2-0.2,0.5-0.3,0.8-0.5c0.5-0.3,1.1-0.5,1.6-0.8l1.2-0.5l1.2-0.4c0.8-0.3,1.8-0.6,2.9-0.9     c0.5-0.1,1.1-0.2,1.7-0.3c0.3,0,0.7-0.1,0.9-0.1l0.6,0l2.3-0.2l9-0.6l9.1-0.6c3.1-0.2,6.2-0.3,9.4-0.4c3.2,0,6.5,0.1,9.9,0.6     c1.7,0.2,3.4,0.5,5,0.8l2.1,0.4l2,0.4c2.7,0.5,5.4,0.8,8.2,1c1.4,0.1,2.8,0.1,4.2,0.2l2.1,0l1,0c0.5,0,1,0,1.4,0     c1.9,0.1,3.5,0.2,5,0.4l2.1,0.2l1,0.1l1.1,0.1l8.9,0.5l4.4,0.3l0.9,0.1l0,0l0,0v0l0.1-0.1c0.2-0.2,0.3-0.4,0.5-0.5     c0.4-0.3,0.8-0.7,1.3-1c0.5-0.3,1.2-0.7,2.2-1.1c0.5-0.2,1.1-0.3,1.9-0.4l0.3,0l0.1,0l0.1,0l4.6-0.1l4.6-0.1l2.3-0.1l2.2,0l9,0     l9,0l1,0l1.1,0c0.8,0,1.8-0.1,3,0c1.2,0.1,2.7,0.4,4.2,0.9c1.5,0.6,2.9,1.5,4.1,2.5l0.1,0l1.4-0.1l1.6-0.1     c1.1-0.1,2.4-0.1,3.7,0L1057.4,43.9z"></path>			</g>			<g>				<path class="st7" d="M1489.6,28.5c-0.6,0.4-1,0.7-1.2,0.8c-0.2,0.1-0.3,0.2-0.1,0c0.1-0.1,0.3-0.2,0.6-0.4     c0.3-0.2,0.8-0.3,1.4-0.5c0.1,0,0.1,0,0,0l0,0l-0.1,0l-0.2,0L1489.6,28.5l-3.1,0.3c-2,0.2-3.9,0.3-5.9,0.5     c-3.8,0.3-7.9,0.3-12.3,0.4l-3.3,0.1c-1.2,0-2.2,0.1-3.3,0.2l-6.4,0.4l-25.5,1.5c-4.2,0.3-8.7,0.4-13,0.7L1404,33l-13,0.6     c-1.7,0.1-3.4,0.4-4.8,1.4c-1.4,1-2.2,2.5-2.9,4.1c-0.2,0.5-0.2,0.7-0.4,1l-0.3,0.9l-0.6,1.8l-0.6,1.8l-0.1,0.2l0,0.1l0,0.1     l-0.1,0.3c-0.1,0.4-0.2,0.9-0.5,1.1c-0.4,0.2-0.8,0.2-1.2,0.3l-0.3,0c-0.1,0-0.2,0-0.5,0c-0.5,0-1,0-1.5,0     c-1-0.1-1.9-0.1-2.9-0.3c-1.9-0.3-3.7-0.8-5.5-1.6c-0.9-0.4-1.7-0.8-2.6-1.3c-0.4-0.2-0.8-0.5-1.2-0.8c-0.3-0.2-1.1-0.7-1.6-1     l-1.5-0.8l-0.6-0.3l-0.8-0.5c-1.1-0.6-2.3-1.2-3.4-1.7c-2.4-1-4.8-1.7-7.3-2c-1.2-0.2-2.5-0.3-3.6-0.4c-1-0.1-2.1-0.2-3.2-0.3     c-2.1-0.2-4.3-0.6-6.6-0.9c-3.1-0.4-6.4-0.7-9.5-0.8c-3.1-0.1-6.2-0.1-9.3-0.1c-6.1,0-12.2-0.1-18.3-0.1l-9.1-0.1     c-1.4,0-3-0.2-4.7-0.2c-0.8,0-1.7,0-2.6,0.1c-0.8,0.1-1.4,0.1-2.2,0.1c-2.9,0.1-5.8,0-8.8-0.2c-1.5-0.1-3-0.3-4.5-0.4l-4.4-0.5     c-0.3,0-0.6-0.1-0.9-0.3l-0.6-0.3c-0.3-0.2-0.7-0.3-1.1-0.5l-1.1-0.5c-0.6-0.3-1.1-0.5-1.8-0.6c-0.6-0.1-1.2-0.1-1.8-0.2l-1.3,0     l-26-0.6l-3.2-0.1c-0.6,0-1,0-1.7,0c-0.6,0-1.2,0-1.8,0.1c-2.3,0.1-4.5,0.4-6.5,0.6c-1.9,0.2-4.1,0.2-6.2,0.2     c-2.1,0-4.2-0.1-6.3-0.2c-4.2-0.2-8.5-0.7-12.7-1.2c-2.1-0.3-4.2-0.6-6.4-0.9c-1-0.2-2.2-0.3-3.3-0.5c-1.1-0.1-2.3-0.2-3.4-0.3     c-1.2-0.1-2.2-0.1-3.3-0.1l-3.3,0c-2.2,0-4.3,0-6.5-0.1l-13-0.2l-7-0.2l-7,0l-14-0.1l-3.5,0c-1.3,0-2.6,0.1-4,0.3     c-1.4,0.2-2.7,0.5-4.1,0.9c-0.7,0.2-1.3,0.5-2,0.8c-0.3,0.2-0.7,0.3-1,0.5l-0.8,0.4c-3.3,1.7-7.3,2.5-11.7,3.1     c-6.5,0.9-13.2,1.1-18.9,0.2c-5.8-0.9-11.8-2.5-18.8-1.9l-0.5,9c4.6,0.5,9.4,1.3,14.2,1.7c2.4,0.2,4.9,0.4,7.4,0.3     c2.5,0,4.9-0.2,7.2-0.5c2.4-0.2,4.6-0.5,6.9-0.7c2.1-0.2,4.6-0.3,7-0.6c2.4-0.3,5-0.8,7.5-1.6c1.2-0.4,2.5-0.9,3.7-1.5l0.8-0.4     c0.2-0.1,0.4-0.2,0.6-0.3c0.4-0.2,0.8-0.3,1.2-0.5c1.7-0.5,3.6-0.8,5.6-0.8l6.7-0.1c4.5,0,9,0,13.6-0.1     c4.5-0.1,9.1,0.2,13.6,0.4c4.5,0.2,9.1,0.5,13.7,0.7l5.1,0.2l2.6,0.1c0.9,0,1.6,0.1,2.3,0.2c0.8,0.1,1.5,0.2,2.3,0.3     c0.8,0.1,1.4,0.2,2.3,0.4c1.7,0.3,3.5,0.6,5.2,0.9c7,1.1,14.2,1.9,21.5,2.1c0.9,0,1.8,0,2.7,0l1.4,0l1.5,0     c2.1-0.1,3.9-0.3,5.6-0.5c0.8-0.1,1.6-0.1,2.3-0.2c0.4,0,0.7,0,1,0c0.4,0,0.6,0,1.1,0l5.2,0.1c6.9,0.1,13.8,0.3,20.7,0.4     c1.5,0,3.1,0,4.6,0c0.3,0,0.9,0,0.8,0c0,0,0,0,0.1,0c0,0,0,0,0.1,0c0,0,0.2,0.1,0.4,0.2l0.8,0.3c0,0,0.1,0,0.3,0.1l1.2,0.5     c1.1,0.5,2.2,0.8,3.3,0.9l0.5,0l0.3,0l0.5,0l1,0l2.1,0.1c1.4,0,2.8,0.1,4.3,0.1c2.9,0,5.8-0.1,8.8-0.4c1.5-0.1,3-0.3,4.4-0.5     c1-0.2,2.2-0.2,3.5-0.2l2.1,0l2.2,0c1.4,0,2.8,0,4.1,0l11.7,0.3l11.8,0.3c3.9,0.1,7.7,0.3,11.3,0.7c3.5,0.4,7.3,1.3,11.3,2     c1,0.2,2.1,0.3,3.1,0.5l1.4,0.2c0.4,0.1,0.8,0.1,1.2,0.2c1.6,0.3,3.1,0.7,4.5,1.3c1.4,0.6,2.7,1.3,3.9,2.2l0.8,0.5l0.7,0.5     c0.4,0.3,0.8,0.5,1,0.7l1,0.7c0.5,0.4,1,0.7,1.5,1c4,2.7,8.7,4.4,13.4,5.2c1.2,0.2,2.4,0.3,3.5,0.4l0.9,0c0.4,0,0.9,0,1.4,0     l1.4,0c0.5,0,0.9-0.1,1.4-0.1l1.4-0.2c0.4-0.1,0.9-0.2,1.3-0.4c0.8-0.3,1.6-0.8,2.3-1.3c1.4-1.1,2.4-2.5,3.1-4.4l1-2.6l0.4-1     l0.7-1.9l0.1-0.2l0-0.1l0,0l0,0l0,0c0,0,0,0,0,0l0,0l1.3,0l2.7,0l5.4-0.1c7.3-0.2,14.6-0.5,21.9-1c1.8-0.1,3.7-0.2,5.6-0.4     l5.7-0.4l11.3-1l11.3-1l5.7-0.5c1.8-0.2,3.6-0.3,5.5-0.4c3.8-0.2,7.6-0.3,11.6-0.8c2-0.2,3.9-0.6,5.8-0.9l2.8-0.5l1.4-0.3     l0.4-0.1c0.4-0.1,0.8-0.2,1-0.3c0.6-0.3,0.9-0.5,1.2-0.8c0.5-0.4,0.8-0.7,0.8-0.8L1489.6,28.5z"></path>				<path class="st3" d="M1497.2,39.6c0.2-0.2,0.1-0.1-0.1,0.1c-0.3,0.2-0.7,0.7-1.8,1.3c-0.5,0.3-1.2,0.6-2.2,0.9     c-0.2,0.1-0.5,0.1-0.8,0.2l-0.3,0l-0.2,0l-0.9,0.1l-3.6,0.5c-2.5,0.3-5,0.6-7.7,0.7c-5.2,0.2-10,0-14.5,0.1l-28.6,0.9     c-9.7,0.4-18.8,0.5-28,0.7l-13.8,0.3l-1.6,0l-2.1,5.9c-0.5,1.3-1.1,2.3-1.9,3.2c-0.8,0.9-1.8,1.7-2.9,2.3     c-0.6,0.3-1.1,0.5-1.7,0.7c-0.6,0.2-1.3,0.2-1.9,0.3l-1,0.1l-1,0c-0.7,0-1.3,0-2,0l-1.3,0l-1.2-0.1c-0.8-0.1-1.6-0.2-2.4-0.3     c-1.6-0.2-3.2-0.6-4.8-1c-3.2-0.9-6.3-2.3-9-4.1c-0.4-0.2-0.7-0.4-1-0.7l-0.9-0.6c-0.2-0.1-0.6-0.4-1.1-0.7l-1-0.6l-0.9-0.6     c-0.4-0.3-0.8-0.5-1.2-0.7c-1.7-0.9-3.5-1.5-5.5-1.9c-0.5-0.1-1-0.2-1.5-0.2l-0.8-0.1l-1-0.1c-1.5-0.1-2.9-0.3-4.3-0.5     c-2.8-0.4-5.3-0.8-7.8-1.2c-1.2-0.2-2.4-0.3-3.5-0.4c-1.2-0.1-2.5-0.2-3.7-0.2c-5-0.2-10.3-0.1-15.7-0.2l-15.9-0.1l-4.1,0     l-4-0.1c-0.6,0-1.1,0-1.6,0c-0.2,0-0.5,0-0.7,0l-1,0.1c-1.5,0.1-3,0.2-4.4,0.2c-2.9,0-5.8-0.1-8.6-0.3c-1.4-0.1-2.8-0.2-4.1-0.4     l-4.3-0.5c-1.2-0.1-2.4-0.5-3.4-1l-1.4-0.7c-0.4-0.2-0.8-0.3-1-0.5l-0.2-0.1v0l-2.5-0.1l-6.3-0.2l-12.6-0.3l-6.3-0.2l-3.2-0.1     l-0.8,0l-0.6,0c-0.4,0-0.8,0-1.3,0.1c-1.8,0.1-3.9,0.4-6.3,0.6c-0.6,0-1.2,0.1-1.9,0.1l-1.7,0c-1.1,0-2.2,0-3.4,0     c-8.9-0.1-17.7-1.1-26.2-2.4l-1.6-0.2l-1.4-0.2c-0.9-0.1-1.8-0.2-2.7-0.2l-1.4-0.1l-1.6,0l-3.1,0c-4.2,0-8.4-0.1-12.6-0.1     l-12.6-0.2c-4.2,0-8.4,0.2-12.6,0.4l-12.6,0.4c-1.8,0.1-3.3,0.3-4.7,0.6c-0.7,0.2-1.3,0.4-1.9,0.7c-0.1,0.1-0.3,0.1-0.4,0.2     l-0.8,0.4c-0.6,0.3-1.2,0.6-1.9,0.9c-5,2.1-10,2.8-14.5,3.2l-1.5,0.1l-1.5,0.2l-3,0.4c-2.1,0.3-4.2,0.5-6.5,0.8     c-2.2,0.2-4.6,0.4-7,0.4c-2.3,0-4.6-0.1-6.8-0.3c-2.2-0.2-4.4-0.4-6.5-0.6l-3.1-0.3l-2.9-0.2l0.8-14l1.7,0.1l1.6,0.1l3.2,0.3     c2.1,0.2,4.2,0.4,6.2,0.5c2,0.1,3.9,0.2,5.8,0.2c1.8,0,3.7-0.1,5.6-0.3c2-0.2,4-0.5,6.1-0.7l3.3-0.4l1.7-0.2l1.6-0.1     c4-0.3,7.5-0.9,10.2-2.1c0.3-0.2,0.7-0.3,1-0.5l0.6-0.3c0.3-0.2,0.7-0.3,1-0.5c1.3-0.6,2.7-1.1,4.1-1.5c2.7-0.8,5.5-1.1,7.9-1.1     l12.8-0.4c4.3-0.1,8.5-0.3,12.8-0.4l12.8,0.2c4.3,0.1,8.5,0.1,12.8,0.1l3.2,0l1.6,0l1.8,0.1c1.2,0.1,2.4,0.2,3.6,0.3     c0.6,0.1,1.2,0.2,1.8,0.2l1.6,0.2c8.2,1.3,16.3,2.2,24.3,2.3c1,0,2,0,3,0l1.5,0c0.4,0,0.8,0,1.3-0.1c1.8-0.1,3.9-0.4,6.3-0.6     c0.6,0,1.2-0.1,1.9-0.1l1,0l0.8,0l3.2,0.1l6.4,0.2L1247,26l6.4,0.2l1.6,0l0.8,0l0.6,0c0.2,0,0.5,0,0.8,0c1,0.1,2.1,0.4,3.1,0.7     c0.2,0.1,0.5,0.2,0.7,0.3l0.6,0.3l0.4,0.2c0.6,0.2,1.1,0.5,1.4,0.7l0.4,0.2l0,0l0,0l3.6,0.4c1.3,0.1,2.5,0.3,3.8,0.4     c2.5,0.2,4.9,0.3,7.3,0.3c1.2,0,2.3-0.1,3.5-0.2l1-0.1c0.4,0,0.9-0.1,1.3-0.1c0.8,0,1.6,0,2.4,0l3.9,0.1l3.9,0l15.9,0.1     c5.2,0.1,10.5,0,16,0.2c1.4,0.1,2.8,0.1,4.2,0.2c1.5,0.1,3,0.3,4.4,0.5c2.8,0.4,5.4,0.8,7.9,1.2c1.2,0.2,2.4,0.3,3.6,0.4l1,0.1     c0.4,0,0.8,0.1,1.2,0.1c0.8,0.1,1.6,0.2,2.4,0.4c3.2,0.6,6.4,1.7,9.4,3.3c0.7,0.4,1.5,0.8,2.2,1.3l0.8,0.5l0.7,0.4     c0.6,0.3,1.3,0.8,2.2,1.4l0.7,0.5c0.2,0.2,0.4,0.3,0.6,0.4c1.7,1.1,3.4,1.9,5.3,2.4c0.9,0.3,1.9,0.5,2.9,0.6     c0.5,0.1,1,0.1,1.5,0.2l0.8,0.1l0.7,0l0,0l0,0l0,0l0.2-0.5l0.8-2.1l0.8-2.1l0.2-0.5c0.1-0.2,0.1-0.3,0.2-0.6     c0.2-0.5,0.5-1.1,0.8-1.6c0.6-1,1.2-1.9,2.1-2.6c0.8-0.8,1.8-1.3,2.9-1.7c1-0.4,2.2-0.6,3.4-0.6c0.4,0,0.5,0,0.6,0l0.5,0l0.9,0     l14.8-0.3c9.9-0.2,19.9-0.4,29.3-0.8l28.7-0.9c5.1-0.1,9.8,0.1,14.2,0c2.1-0.1,4.3-0.3,6.6-0.6l3.5-0.4l0.9-0.1l0.2,0l0.1,0l0,0     l-0.1,0c-0.2,0-0.4,0.1-0.5,0.1c-0.7,0.2-1.1,0.4-1.3,0.5c-0.5,0.3-0.5,0.3-0.3,0.2c0.2-0.1,0.5-0.5,1.3-1L1497.2,39.6z"></path>			</g>			<g>				<path class="st7" d="M1917.8,25.6c-1.9-0.4-3.8-0.7-5.8-1c-1-0.1-1.9-0.3-2.9-0.4c-1-0.1-2-0.2-3-0.2     c-12.3-0.7-24.6-0.7-36.9-0.1c-1.8,0.1-3.4,0.3-4.7,0.4l-0.9,0.1c-0.3,0-0.5,0-0.9,0l-2.2,0l-4.4,0l-2.2,0c-0.8,0-1.7,0-2.5,0     c-6.9,0.2-13.4,2-19.3,4.1l-2.2,0.8l-1.8,0.7c-0.4,0.1-0.6,0.2-0.9,0.2c-0.1,0-0.3,0-0.4,0c-0.2,0-0.3,0-0.7-0.1     c-2.8-0.5-5.8-1.2-8.9-1.8c-1.5-0.3-3.1-0.6-4.7-0.8c-1.6-0.2-3.3-0.4-4.9-0.4c-3.2-0.1-6.4,0-9.4,0.1l-4.5,0.2l-4.5,0.1l-9,0.2     c-2.9,0-6.1-0.1-9.4,0.2l-9,0.9c-6.4,0.6-12.7,1.2-19.1,1.7l-19.1,1.6l-9.6,0.8l-4.8,0.4l-1.2,0.1c-0.4,0-0.9,0.1-1.3,0.2     c-0.9,0.1-1.8,0.3-2.6,0.5c-3.4,0.8-6.3,1.8-9.2,2.4c-1.4,0.3-2.8,0.5-4,0.4c-1.5,0-3-0.2-4.6-0.3c-1.3-0.1-2.6-0.2-4-0.3     c-0.7,0-1.4-0.1-2.1-0.1l-2,0l-7.8-0.1l-3.9-0.1l-2,0c-0.4,0-0.6,0-0.8,0c-0.2,0-0.5-0.1-0.8-0.1c-0.5-0.1-1.1-0.2-1.7-0.3     l-1.9-0.4c-0.5-0.1-1.1-0.3-1.8-0.5c-0.4-0.1-0.8-0.2-1.2-0.3c-0.5-0.1-0.9-0.1-1.4-0.2c-2.9-0.1-5.6,0-8.3,0     c-2.6,0-5.3-0.2-8-0.3l-16.3-0.8c-10.9-0.5-21.8-1.1-32.6-1.7c-8.6-0.4-17.1-1.4-25.6-2.7l-6.3-1c-2.3-0.4-4.7-0.6-6.9-0.7     c-2.3-0.1-4.5,0-6.7,0l-3.2,0.2l-3.2,0.2c-3.2,0.3-6.3,0.4-9.2,0.3c-0.7,0-1.4-0.1-2.2-0.1l-2.2-0.2l-4.5-0.5     c-3-0.3-5.9-0.6-8.9-0.6l-0.6,0l-0.4,0l-0.8,0l-1.9-0.1c-1.4-0.1-3.1-0.1-5,0.1l-0.2,9c2,0.1,4.1,0.6,6.6,0.8     c0.6,0.1,1.2,0.1,1.9,0.1l1.7,0c1.1,0,2.2,0,3.3-0.1c4.4-0.1,8.8-0.1,13.2-0.3c2.2-0.1,4.3-0.2,6.5-0.4c1,0,2.1-0.1,3-0.1l3.2,0     c4.3,0,8.5,0,12.4,0.4c1,0.1,1.9,0.2,2.9,0.4l3.2,0.5c2.1,0.3,4.3,0.6,6.4,0.9c4.3,0.5,8.6,1,12.8,1.4c8.6,0.7,17,1.4,25.6,2.3     c8.3,0.8,16.6,1.5,24.9,2.1l12.5,0.8l1.6,0.1l1.7,0.1c1.1,0,2.2,0,3.3,0c2.1,0,4.1,0,5.9,0c0,0-0.1,0,0.2,0.1l1.5,0.4     c0.4,0.1,0.8,0.2,1.3,0.3l0.7,0.2l1.8,0.4c0.7,0.1,1.5,0.3,2.4,0.4c0.4,0,0.9,0.1,1.4,0.1l0.9,0l3.4,0l6.9,0.1l3.4,0l1.7,0     l1.5,0.1c1.6,0.1,3.4,0.2,5.2,0.3c0.9,0,1.9,0.1,2.9,0.1l0.8,0c0.3,0,0.7,0,1,0c0.6,0,1.3-0.1,1.9-0.2c2.4-0.4,4.3-1,6.2-1.6     c1.9-0.7,3.5-1.3,5-1.9c1.6-0.6,2.9-1,4.3-1.3c1.8-0.3,3.5-0.6,5.3-0.8c3.5-0.5,7-1,10.6-1.2l13.5-1c4.5-0.3,9-0.5,13.5-0.7     l13.5-0.6l6.7-0.3c1.9,0,4,0.1,6.3,0.3l1.8,0.1l1.8,0.1l3.4,0.1l6.8,0.2c4.7,0.1,9.2,0,13.3,0.3c1,0.1,2,0.2,3,0.3     c1,0.1,1.9,0.3,2.9,0.5c2,0.4,4,0.9,6.2,1.4l3.3,0.8l1.7,0.4l0.9,0.2c0.3,0.1,0.5,0.1,1.1,0.2c2,0.4,4.3,0.3,6.2-0.1     c0.5-0.1,0.9-0.2,1.4-0.4l1-0.3l1.5-0.5c6.3-2.2,12.3-3.9,18.2-4l5.3,0l5.5-0.1c2.2-0.1,4-0.4,5.5-0.6c0.7-0.1,1.6-0.1,2.5-0.2     l2.6-0.2c6.9-0.5,13.9-0.8,20.9-1c3.5-0.1,7-0.1,10.5,0c3.5,0,7.1,0.2,10.6,0.3l1.2,0L1917.8,25.6z"></path>				<path class="st3" d="M1916.8,39l-8.3-0.7c-2.7-0.2-5.4-0.4-8.1-0.6c-5.4-0.3-10.8-0.6-16.2-0.7c-2.7,0-5.4-0.1-8.1-0.1l-4.1,0     l-2,0l-0.9,0l-0.9,0c-1.2,0.1-2.7,0.2-4.5,0.3l-0.7,0l-0.6,0l-1.1,0l-2.1-0.1l-4.2-0.1L1853,37c-0.6,0-1.1,0-1.7,0     c-4.6,0-9.3,1-14.2,2.6c-1.2,0.4-2.5,0.8-3.7,1.2l-0.9,0.3l-0.7,0.2c-0.3,0.1-0.5,0.2-0.8,0.2c-1.1,0.3-2.4,0.5-3.7,0.5     c-0.7,0-1.3,0-1.9-0.1c-0.3,0-0.6-0.1-0.9-0.1l-0.4-0.1l-0.4-0.1l-2.1-0.5l-4.1-1c-2.6-0.6-5.1-1.2-7.5-1.5     c-2.3-0.3-4.8-0.5-7.3-0.5c-2.6,0-5.3,0-8.1,0.1l-4.3,0l-4.1,0l-4.1,0l-2.2,0l-2.1-0.1c-1.4,0-2.7-0.1-3.9-0.1     c-0.6,0-1.2,0-1.7,0l-2,0.1l-16.4,1.2c-5.5,0.4-11,0.8-16.4,1.3l-16.4,1.5l-8.2,0.7l-4,0.4c-0.9,0.1-2,0.3-3.1,0.6     c-2.3,0.6-5,1.5-8.3,2.2c-1.6,0.3-3.3,0.7-5.3,0.7c-0.5,0-1,0-1.5,0l-1.2-0.1c-0.8,0-1.5-0.1-2.3-0.2l-4.1-0.4l-1.9-0.1     c-0.6,0-1.1-0.1-1.9-0.1l-8.3-0.1l-4.1-0.1l-2.1,0l-1.1,0c-0.6,0-1.1-0.1-1.6-0.1c-1-0.1-1.9-0.3-2.6-0.5l-2.1-0.5     c-1.1-0.3-1.9-0.5-2.3-0.6c-0.2-0.1-0.4-0.1-0.4-0.1c0,0,0,0,0,0c-2.7-0.1-5.9,0-9.4,0l-1.3,0l-1.2-0.1l-2.4-0.1l-4.8-0.2     l-19.2-0.9l-38.3-1.9c-6.5-0.4-13-1-19.5-1.8l-2.4-0.3c-0.7-0.1-1.4-0.2-2.1-0.2c-1.4-0.1-2.8-0.2-4.3-0.2c-3,0-6.1,0.1-9.3,0.1     c-1.8,0-3,0-4.5,0.1c-1.5,0.1-3,0.2-4.6,0.4l-2.5,0.2l-1.3,0.1l-1.2,0.1l-4.9,0.2l-9.7,0.5l-1.2,0.1c-0.5,0-1.1,0-1.6,0     c-1,0-2-0.1-2.8-0.2c-1.7-0.2-3.1-0.4-4.2-0.4l0.3-14c2.1,0.1,3.9,0.3,5.3,0.4c0.7,0.1,1.4,0.1,1.9,0.1c0.3,0,0.5,0,0.8,0     l1.2-0.1l9.4-0.5l4.7-0.2l1.2-0.1l1.1-0.1l2.3-0.2c1.6-0.1,3.2-0.3,4.9-0.4c1.7-0.1,3.7-0.1,5.1-0.2c3.1-0.1,6.4-0.2,9.8-0.1     c1.7,0,3.5,0.1,5.3,0.2c0.9,0.1,1.8,0.2,2.7,0.3l2.4,0.3c6.1,0.8,12.3,1.3,18.6,1.7l38.1,1.9l19.1,0.9l4.8,0.2l2.4,0.1l1.2,0.1     l1.1,0c2.9,0.1,6.1-0.1,9.7,0c0.7,0,1.4,0.1,2.1,0.2c0.6,0.1,1.1,0.3,1.6,0.4c0.9,0.2,1.4,0.4,1.6,0.5l2,0.4     c0.6,0.1,1.1,0.2,1.4,0.3c0.2,0,0.3,0,0.4,0l0.9,0l2.1,0l4.1,0.1l8.3,0.1c0.6,0,1.5,0,2.2,0.1l2.2,0.2l4.1,0.4     c0.6,0.1,1.3,0.1,1.9,0.1l0.9,0c0.2,0,0.3,0,0.6,0c0.8,0,1.7-0.2,2.9-0.4c2.2-0.5,4.7-1.3,7.7-2.1c1.5-0.4,3.2-0.8,5-1l4.2-0.4     l8.3-0.7L1736,27c5.5-0.5,11-0.9,16.6-1.3l16.5-1.3l2.1-0.2c0.8,0,1.6-0.1,2.4-0.1c1.6,0,3,0,4.4,0.1l2,0.1l2,0l4.1,0l4.1,0l4,0     c2.7,0,5.5-0.1,8.4-0.1c2.9,0,6,0.2,9.2,0.6c3.1,0.5,6,1.1,8.7,1.8l4,1l1.9,0.4l0.2,0l0.1,0l0.1,0c-0.5,0.3,3.3-1.2,5.9-1.9     c5.6-1.8,11.8-3.2,18.3-3.2c0.8,0,1.6,0,2.4,0l2,0.1l4,0.1l2,0.1l1,0l0.5,0l0.4,0c1,0,2.3-0.1,3.8-0.2l1.2-0.1l1.2,0l2.1,0     l4.2,0c2.8,0,5.6,0,8.4,0.1c5.6,0.1,11.2,0.3,16.8,0.7c2.8,0.2,5.6,0.4,8.4,0.6l8.2,0.7L1916.8,39z"></path>			</g>			<g>				<path class="st7" d="M2330.2,30.6c-4.1-0.4-7.9-0.5-11.5-0.6c-1.4,0-2.7-0.1-4.1-0.1c-1.4-0.1-2.9-0.2-4.4-0.3     c-1.5-0.1-3.1-0.3-4.7-0.3c-0.8,0-1.6-0.1-2.5-0.1l-1.3,0l-1.2,0c-5.8,0.1-11.5-0.1-17-1c-0.7-0.1-1.4-0.2-2-0.4     c-0.8-0.1-1.7-0.3-2.5-0.4c-1.7-0.3-3.3-0.4-5-0.5c-3.3-0.2-6.5-0.2-9.7-0.1c-3.2,0.1-6.3,0.4-9.3,0.7l-9,0.8l-9,0.8l-4.6,0.4     l-4.5,0.5c-1.5,0.2-2.9,0.3-4.3,0.4c-0.7,0-1.4,0.1-2.1,0.1l-2.2,0c-3.1,0-6.2,0.2-9.3,0.4c-6.1,0.4-12.2,1-18.2,1.6     c-3,0.3-6,0.6-8.9,0.9c-2.8,0.2-5.7,0.1-8.8,0.1c-1.6,0-3.3,0-4.9,0l-4.8,0.2l-9.6,0.3c-6.4,0.3-12.8,0.7-19.1,0.9     c-1.6,0.1-3.2,0.1-4.7,0.1l-4.8,0l-9.5,0l-9.5,0l-2.4,0c-0.8,0-1.8,0-2.6,0.1l-2.4,0.2l-1.1,0.1c-0.3,0-0.5,0-0.8,0     c-0.8-0.1-1.7-0.3-2.9-0.8c-0.7-0.3-1.3-0.5-2-0.6c-0.7-0.1-1.3-0.2-1.9-0.2c-1.2,0-2.2,0-3.2,0.1l-5.8,0.2l-11.6,0.4l-5.8,0.2     l-5.8,0.3c-1.9,0.1-3.8,0.2-5.7,0.2c-0.9,0-1.9,0-2.8,0l-2.9-0.2l-23.1-1.4l-11.6-0.7l-5.8-0.4c-1-0.1-2-0.1-2.8-0.2     c-0.9-0.1-1.9-0.2-3-0.2c-2.5-0.1-5.5,0.2-8.1,1.9c-1.1,0.7-2.1,1.5-2.9,2.2l-1.2,1l-0.3,0.2l-0.1,0.1l0,0c0,0,0,0,0.1-0.1     c0.1-0.1,0.4-0.1,0.6-0.1c0.2,0,0.4,0.1,0.5,0.1c0,0,0.1,0,0,0l0,0l-0.2-0.1c-0.2-0.1-0.3-0.2-0.4-0.2c-0.6-0.3-1-0.5-1.6-0.6     c-0.6-0.1-1.2-0.2-2-0.1c-0.2,0-0.5,0.1-0.8,0.2c-0.1,0-0.3,0.1-0.4,0.1l-0.3,0.1l-0.2,0.1c-0.2,0.1-0.5,0.1-0.7,0.1     c-1.1,0-1.6-0.3-3.3-1.4l-1.3-0.9c-0.2-0.1-0.3-0.2-0.4-0.3c0,0-0.1-0.1-0.1-0.1c0,0,0,0-0.1-0.1l-0.2-0.2c-1-1-2.2-1.9-3.4-2.6     c-2.5-1.4-5.3-2.1-7.8-2.4c-2.5-0.3-4.9-0.2-7-0.1l-0.8,0c-0.3,0-0.7,0-1,0.1c-0.6,0.1-1.2,0.1-1.7,0.2     c-0.5,0.1-0.9,0.1-1.4,0.2l-1.6,0.2c-3,0.3-5.9,0.3-8.7-0.1c-3-0.5-5.9-1.1-8.9-1.7c-2.9-0.6-5.9-1.1-8.8-1.4     c-1.5-0.1-2.9-0.3-4.4-0.3c-1.5-0.1-3,0-4.5,0.1l-0.7,9c2.2,0.3,4.5,0.6,6.7,0.8c2.2,0.2,4.4,0.4,6.6,0.6     c4.4,0.3,8.8,0.6,13.1,1c2.2,0.2,4.6,0.1,6.7,0.1l3.2-0.1l1.6,0c0.6,0,1.2,0,1.8-0.1c0.5,0,1-0.1,1.5-0.1l0.6,0l0.8,0     c1.1,0,2.1,0,3.1,0c2,0.1,3.8,0.3,5.3,0.7c1.5,0.5,2.7,1.2,3.7,2.2l0.2,0.2c0.2,0.2,0.4,0.3,0.5,0.5c0.3,0.3,0.7,0.5,0.9,0.7     l1.3,0.9c0.5,0.3,1,0.7,1.6,1.1c0.6,0.3,1.3,0.7,2.1,1c1.6,0.6,3.4,0.9,5.1,0.7c0.9-0.1,1.7-0.3,2.6-0.6     c0.4-0.1,0.9-0.3,1.2-0.5c-0.4,0.2-0.8,0.3-1.1,0.3c-0.3,0-0.4,0-0.5,0c-0.2,0-0.3,0-0.4,0c0,0-0.1,0-0.2-0.1     c-0.1,0-0.1,0-0.2-0.1l-0.1-0.1l0.2,0.1c0.5,0.3,1.1,0.6,1.9,0.9c0.8,0.2,1.8,0.3,2.7,0.2c1.9-0.2,3.2-1.2,3.8-1.7     c0.5-0.4,1-0.8,1.4-1.1c0.8-0.7,1.6-1.3,2.2-1.7c0.3-0.2,0.6-0.4,0.7-0.4c0.1,0,0.4-0.1,0.6-0.2c0.2,0,0.5-0.1,0.8-0.1     c0.3,0,0.6,0,1,0c0.7,0,1.7,0.2,2.8,0.3c4.3,0.4,8.6,0.9,12.9,1.3c6.4,0.7,12.8,1.3,19.3,1.9l9.7,0.8l4.9,0.4     c1.8,0.1,3.6,0.1,5.3,0.1c3.4,0,6.7-0.2,9.8-0.3l9.7-0.3l9.7-0.4l4.9-0.2c0.7,0,1.3,0,1.6,0c0.4,0,0.3,0,0.3,0c0,0,0,0,0.1,0     c1,0.4,2.2,0.8,3.7,1.1c0.7,0.1,1.5,0.2,2.3,0.3c0.8,0,1.7,0,2.1-0.1c2.1-0.2,3.7-0.5,5-0.6c3.6-0.3,7.2-0.6,10.7-0.9     c3.6-0.3,7.1-0.6,10.7-0.9c1.8-0.1,3.6-0.2,5.4-0.3c1.8-0.1,3.6-0.2,5.4-0.2l13.6-0.5c4.5-0.2,8.9-0.1,13.4-0.1     c2.2,0,4.5,0,6.6,0.1c2.1,0.1,4.3,0.3,6.6,0.4c2.3,0.1,4.8,0.3,7.3,0.2l6.8-0.3c9.1-0.4,18-0.9,26.6-0.6l3.3,0.1     c1.3,0,2.5,0,3.7,0c2.4-0.1,4.8-0.2,7-0.4l13.4-0.8c3.5-0.2,7-0.5,10.6-0.8c3.5-0.3,6.9-0.6,10.2-0.8c3.3-0.2,6.5-0.2,9.6,0.1     c0.8,0.1,1.6,0.2,2.3,0.3l1.2,0.2l1.4,0.2c1.9,0.3,3.8,0.5,5.6,0.6c3.7,0.3,7.5,0.3,11.1,0.2l5.2-0.2c1.6,0,3.3,0,5.1,0     c3.4,0.1,7.1,0.4,10.8,0.2c3.7-0.1,7.2-0.4,10.7-0.6l1.2-0.1V30.6z"></path>				<path class="st3" d="M2330.2,44c-4.7,0-9.8,0.2-15.3-0.1c-5.4-0.4-10.1-1.2-14.4-1.2c-5.1-0.1-10.4-0.3-15.7-1.1     c-1.3-0.2-2.7-0.4-4-0.7l-3.6-0.7c-2.1-0.4-4.2-0.6-6.5-0.8c-4.4-0.3-9.1-0.1-14,0.3l-14.8,0.9l-7.4,0.5l-7.4,0.5     c-1.3,0.1-2.6,0.2-4,0.2c-0.7,0-1.4,0-2.1,0l-1.9,0c-2.3,0-4.7,0-7.1,0.1c-4.8,0.1-9.6,0.5-14.5,0.8l-7.4,0.6l-3.7,0.3     c-1.3,0.1-2.4,0.2-3.9,0.2c-2.8,0.1-5.5,0-7.9-0.1l-3.6-0.1l-1.7,0l-1.8,0c-4.9,0.1-9.7,0.2-14.6,0.4l-14.8,0.8     c-2.5,0.1-5.1,0.2-7.6,0.3l-7.4,0l-14.9,0l-3.7,0l-0.8,0l-0.7,0l-1.7,0.1l-2,0.1l-0.6,0l-0.8,0c-0.6,0-1.1,0-1.7-0.1     c-2.2-0.2-4.1-0.9-5.4-1.5c0,0,0,0,0,0c-0.1,0-0.2,0-0.5,0c-0.5,0-1.2,0-2.2,0l-5.7,0.2l-11.3,0.4l-5.6,0.2l-5.5,0.2     c-1.9,0.1-3.8,0.2-5.9,0.2c-1,0-2,0-3.1,0l-1.5-0.1l-1.4-0.1l-22.7-1.5L2003,42c-1-0.1-1.8-0.2-2.4-0.2c-0.3,0-0.5,0-0.7,0     c-0.2,0-0.3,0-0.5,0.1c-0.3,0.1-0.5,0.2-0.4,0.1c-0.3,0.2-0.8,0.5-1.4,1c-0.6,0.5-1.3,1.2-2.2,1.9l-0.4,0.3     c-0.2,0.2-0.5,0.4-0.8,0.6c-0.6,0.4-1.3,0.8-2.2,1.1c-0.9,0.3-2.1,0.5-3.2,0.5c-1.1,0-2.1-0.3-3-0.6c-0.4-0.2-0.8-0.3-1.1-0.5     c-0.2-0.1-0.3-0.2-0.5-0.3l-0.2-0.1l-0.1-0.1c0,0,0,0,0.1,0c0.5,0.3,0.7,0.4,1,0.5c0.2,0.1,0.4,0.1,0.8,0.2     c0.4,0,0.9,0.1,2.2-0.3c0.1-0.1,0.3-0.1,0.4-0.2l0.2-0.1l-0.1,0l-0.3,0.1l-0.6,0.3c-0.4,0.2-0.9,0.3-1.3,0.5     c-0.9,0.2-1.8,0.4-2.8,0.5c-1.9,0.1-3.8-0.2-5.5-0.8c-0.5-0.2-0.8-0.3-1.2-0.5c-0.4-0.2-0.7-0.3-1-0.5c-0.6-0.3-1.2-0.7-1.7-1     l-1.2-0.8c-0.4-0.3-1-0.6-1.8-1.3l-1.1-0.9c-0.2-0.1-0.4-0.3-0.5-0.4c-0.7-0.5-1.5-0.8-2.7-1c-1.1-0.2-2.6-0.3-4.3-0.3l-2.7,0     l-0.7,0l-0.5,0l-1.2,0.1c-0.5,0-1,0.1-1.6,0.1l-1.5,0.1l-2.8,0.1c-1.9,0.1-3.9,0.2-6,0.2c-1.1,0-2-0.1-3-0.1l-2.9-0.1     c-7.6-0.4-15.3-0.5-22.8-1.3l1-13.9c7.4,0.8,14.8,0.9,22.3,1.3l2.8,0.1c0.9,0,1.9,0.1,2.7,0.1c1.6,0,3.4-0.1,5.2-0.2     c1.8-0.1,4-0.2,5.4-0.3l1.6-0.1l1,0l0.8,0l2.9,0c2.1,0,4.4,0,6.9,0.5c2.5,0.4,5.3,1.5,7.8,3c0.6,0.4,1.2,0.8,1.7,1.3l0.8,0.7     l0.3,0.3l-0.1-0.1c0,0,0.1,0.1,0.5,0.4l1.1,0.7c0.3,0.2,0.5,0.3,0.7,0.4l0.3,0.1c0,0,0.1,0,0.1,0c0,0,0,0,0,0l0,0l0.9-0.4     c1.7-0.5,2.7-0.4,3.6-0.4c0.8,0.1,1.5,0.2,2.2,0.5c0.7,0.2,1.4,0.5,2.2,1l0.1,0.1l0,0l-0.1,0l-0.2-0.1c-0.1-0.1-0.3-0.1-0.5-0.2     c-0.4-0.2-0.9-0.3-1.6-0.3c-0.6,0-1.3,0.1-1.8,0.3c-0.5,0.2-0.8,0.3-1,0.5c-0.1,0.1-0.2,0.1-0.2,0.1l0.2-0.1l2.1-1.8     c0.8-0.7,1.8-1.5,3.2-2.3c1.7-1,3.3-1.5,4.8-1.8c0.8-0.2,1.5-0.3,2.3-0.3c0.7-0.1,1.4-0.1,2.1,0c1.3,0,2.4,0.1,3.3,0.2l22.4,1.3     l22.4,1.4l1.4,0.1l1.3,0c0.8,0,1.7,0,2.6,0c1.7,0,3.6-0.1,5.4-0.2l5.7-0.2l5.7-0.2l11.3-0.4l5.5-0.2c0.9,0,2-0.1,3.4,0     c0.7,0,1.5,0.1,2.3,0.3c0.9,0.2,1.8,0.4,2.7,0.8c1,0.4,1.5,0.5,1.7,0.5c0.1,0,0.1,0,0.2,0l0.5,0l1.7-0.1l2-0.1l1.1,0l1.1,0     l3.7,0l14.8,0l7.4,0c2.4,0,4.8-0.1,7.2-0.2l14.8-0.8c5-0.2,10.1-0.3,15.1-0.4l1.9,0l2,0l3.8,0.1c2.5,0.1,4.8,0.2,6.9,0.1     c1,0,2.3-0.1,3.5-0.2l3.7-0.3l7.4-0.6c5-0.4,10-0.7,15.1-0.9c2.6-0.1,5.1-0.1,7.7-0.1l1.8,0c0.5,0,1.1,0,1.6,0     c1.1,0,2.2-0.1,3.4-0.2l7.4-0.6l7.4-0.5l14.8-0.9c5-0.3,10.2-0.6,15.7-0.3c2.7,0.2,5.5,0.5,8.2,1l3.7,0.8     c1.1,0.2,2.2,0.4,3.3,0.6c4.5,0.6,9.1,0.9,13.9,1c5.6,0.1,10.7,0.9,15.2,1.2c4.4,0.3,9.2,0.1,14.3,0.1V44z"></path>			</g>			<g>				<path class="st7" d="M158.5,29.5c0,0,0.8-0.1,2.1-0.3c0.7-0.1,1.4-0.2,2.2-0.3c0.4,0,0.9-0.1,1.3-0.1c0.2,0,0.5,0,0.7-0.1l0.1,0     l0,0l0,0l0,0l0,0l0,0l0,0l-0.1,0l-0.2,0l-0.3,0.1l-0.2,0.1l-0.1,0.1l-0.1,0.1l-0.3,0.1l-0.2,0.1l-0.2,0.1l-0.4,0.3l-0.2,0.2     l-0.2,0.2l-0.2,0.2l-0.2,0.2l-0.2,0.2l-0.2,0.2l-0.2,0.2l-0.1,0.2l-0.1,0.3l-0.1,0.3l-0.1,0.2l-0.1,0.2l-0.1,0.2l-0.1,0.2l0,0.2     l0,0.2l0,0.2l0,0.2l0,0.3l0,0.2l0,0.2l0,0.1l0,0.1l0,0.1l0,0.1l0,0.1l0,0l0,0l0,0l0,0l0,0l0-0.2c-0.1-0.4-0.2-0.9-0.4-1.3     c-0.1-0.2-0.1-0.4-0.2-0.6c0-0.2-0.1-0.4-0.1-0.6c0-0.2-0.1-0.4-0.1-0.6c0-0.2-0.1-0.4-0.1-0.6c0-0.2,0-0.4-0.1-0.5     c0-0.2,0-0.3,0-0.5l0-0.2l0-0.2l0-0.2l0-0.2l0-0.2l0-0.2l0-0.2l0-0.1l0.1-0.1l0,0l0,0l0,0l0,0l0,0l0,0l0.1,0l0.2-0.1l0.2-0.1     c0.1,0,0.3-0.1,0.4-0.2c0.1,0,0.3-0.1,0.5-0.1c0.2,0,0.3-0.1,0.5-0.1c0.2,0,0.4-0.1,0.5-0.1c0.2,0,0.4-0.1,0.6-0.1     c0.2,0,0.4-0.1,0.6-0.1c0.4-0.1,0.9-0.1,1.3-0.2c0.4-0.1,0.9-0.1,1.4-0.2c0.9-0.1,1.8-0.2,2.7-0.3c0.5,0,0.9-0.1,1.4-0.1     c0.5,0,0.9-0.1,1.3-0.1c0.4,0,0.9-0.1,1.3-0.1c0.4,0,0.8,0,1.1-0.1c0.4,0,0.7,0,1,0c0.3,0,0.5,0,0.8,0c0.5,0,0.7,0,0.7,0l-0.3,9     c0,0,0,0-0.1,0c0,0-0.1,0-0.1,0c-0.1,0-0.1,0-0.2,0c-0.1,0-0.2,0-0.3,0c-0.1,0-0.2,0-0.3,0c-0.1,0-0.2,0-0.3,0     c-0.1,0-0.2,0-0.3,0.1c-0.1,0-0.2,0-0.4,0.1c-0.1,0-0.2,0.1-0.4,0.1l-0.2,0.1l-0.2,0.1l-0.2,0.1l-0.2,0.1l-0.2,0.1l-0.2,0.1     l-0.2,0.1l-0.2,0.1l-0.2,0.1l-0.1,0.1l0,0l0,0l0,0l0,0l0,0c-10.4,3.3-5.8,1.9-8.3,2.6l0,0l-0.1,0l-0.2-0.1     c-0.1,0-0.3-0.1-0.4-0.1c-0.1,0-0.3-0.1-0.4-0.1c-0.1,0-0.3-0.1-0.4-0.1c-0.1,0-0.3,0-0.4-0.1c-0.1,0-0.3,0-0.4-0.1     c-0.1,0-0.2,0-0.4,0c-0.1,0-0.2,0-0.3,0c-0.1,0-0.2,0-0.3,0c-0.2,0-0.4,0-0.5,0c-0.2,0-0.3,0-0.4,0c-0.2,0-0.4,0-0.4,0     L158.5,29.5z"></path>			</g>			<g>				<path class="st7" d="M1489.4,43.2c0,0-0.2-0.7-0.6-1.9c-0.2-0.6-0.4-1.3-0.6-2c-0.1-0.4-0.2-0.8-0.3-1.1     c-0.1-0.4-0.2-0.8-0.3-1.2c-0.1-0.4-0.2-0.8-0.3-1.2c-0.1-0.4-0.2-0.8-0.3-1.2c-0.1-0.4-0.2-0.8-0.2-1.2c0-0.2-0.1-0.4-0.1-0.6     c0-0.2-0.1-0.4-0.1-0.6c0-0.2,0-0.4-0.1-0.5c0-0.2,0-0.4,0-0.5c0-0.2,0-0.3,0-0.5c0-0.2,0-0.3,0-0.5l0-0.2l0-0.2l0-0.2l0-0.2     l0-0.2l0-0.2l0.1-0.1l0.1-0.1l0.1-0.1l0,0l0,0l0,0l0,0l0,0l0,0l0.1,0l0.2-0.1l0.2-0.1c0.1-0.1,0.2-0.1,0.4-0.2     c0.1,0,0.3-0.1,0.4-0.2c0.1,0,0.3-0.1,0.5-0.1c0.2,0,0.3-0.1,0.5-0.1c0.2,0,0.3-0.1,0.5-0.1c0.2,0,0.4-0.1,0.6-0.1     c0.4-0.1,0.8-0.2,1.2-0.2c0.4-0.1,0.8-0.1,1.2-0.2c0.8-0.1,1.7-0.2,2.5-0.4c0.4-0.1,0.9-0.1,1.3-0.2c0.4,0,0.8-0.1,1.2-0.1     c0.4,0,0.8-0.1,1.2-0.1c0.4,0,0.7,0,1.1-0.1c0.3,0,0.6,0,0.9,0c0.3,0,0.5,0,0.7,0c0.4,0,0.6,0,0.6,0l-0.2,9c0,0,0,0-0.1,0     c-0.1,0-0.2,0-0.3,0c-0.1,0-0.1,0-0.2,0c-0.1,0-0.2,0-0.3,0c-0.1,0-0.2,0-0.3,0c-0.1,0-0.2,0-0.3,0.1c-0.1,0-0.2,0-0.3,0.1     c-0.1,0-0.2,0.1-0.3,0.1l-0.2,0.1l-0.2,0.1l-0.2,0.1l-0.2,0.1l-0.2,0.1l-0.2,0.1l-0.2,0.1l-0.1,0.1l-0.1,0.1l-0.1,0.1l0,0l0,0     l0,0l0,0l0,0l0,0.1l0,0.1l0,0.2c0,0.1,0,0.3-0.1,0.4c0,0.1,0,0.3-0.1,0.4c0,0.1,0,0.3,0,0.4c0,0.1,0,0.2,0,0.4     c0,0.1,0,0.2,0,0.3c0,0.1,0,0.2,0,0.3c0,0.1,0,0.2,0,0.3c0,0.1,0,0.2,0,0.3c0,0.2,0,0.3,0.1,0.5c0,0.1,0,0.3,0.1,0.4     c0,0.2,0.1,0.3,0.1,0.3L1489.4,43.2z"></path>			</g>		</g>	</g></g><g>	<path class="st8" d="M2440,108c-1326,0-2652,0-3978,0c0-25.8,0-51.6,0-77.4c3.7-0.1,7.4-0.2,11.1-0.3c8.4-0.2,16.8-0.5,25.3-0.6  c2.6,0,5.2,0.3,7.7,0.3c5.2,0.1,10.5-0.1,15.7,0c3,0.1,6.1,0.2,9.1,0.7c9.5,1.5,19.1,2.6,28.7,2.5c4.5-0.1,9-0.8,13.5-0.7  c9.9,0.1,19.8,0.5,29.7,0.8c2.1,0.1,4.3-0.1,5.9,1.8c0.3,0.4,1.1,0.5,1.7,0.6c3.6,0.3,7.1,0.7,10.7,0.8c5.4,0.1,10.7,0,16.1,0  c0.8,0,1.6,0.1,2.4,0.1c6.8,0.1,13.5,0.1,20.3,0.1c6.2,0.1,12.5-0.2,18.7,0.4c7.2,0.7,14.3,2.5,21.7,2.2c10-0.4,20-0.1,30-0.2  c3,0,6.1-0.6,9.1-0.7c15.3-0.4,30.6-0.8,46-1.2c6.3-0.2,12.6-0.3,18.9-0.4c8-0.2,16.1-0.2,24.1-0.5c3.9-0.1,7.8-0.7,11.7-1.3  c0.6-0.1,1.2-0.8,1.8-1.2c-0.1-0.3-0.2-0.7-0.3-1c3-0.1,6-0.3,9.1-0.3c2.3,0,4.6,0.6,6.9,0.6c3.7,0,7.4-0.2,11.1-0.4  c6.1-0.4,12.2-1.1,18.3-1.2c6.4-0.2,12.9-0.2,19.3,0.4c8.3,0.8,16.5,2.3,25,2.2c5-0.1,10.1,0.4,15.1,0.7c11.6,0.7,23.3,1.5,34.9,2  c7.3,0.3,14.6,0.2,21.9,0.5c1.5,0,3,0.7,4.5,1c1.6,0.3,3.2,0.8,4.8,0.8c5.4,0.2,10.7,0.1,16.1,0.2c3,0.1,6,0.2,8.9,0.7  c3.7,0.6,6.9-0.3,10.2-1.7c2-0.9,4.2-1.2,6.4-1.5c2.8-0.4,5.7-0.7,8.5-0.9c7.7-0.7,15.3-1.3,23-1.9c5.8-0.5,11.5-0.9,17.3-1.3  c8.5-0.5,17.1-1,25.6-1.4c1-0.1,2,0.3,3,0.2c6.3-1.1,12.7-2.2,19-3.3c1.8-0.3,3.7-0.9,5.5-0.7c5.6,0.7,11.1,1.7,16.7,2.5  c2.6,0.4,5.3,0.8,7.9,0.8c5.9-0.1,11.8-0.4,17.7-0.7c1.6-0.1,3.3-0.2,4.6-0.9c4.7-2.5,9.6-2.1,14.6-1.2c7.3,1.3,14.5,2.4,21.9,2.2  c2.6-0.1,5.2,0.2,7.7,0.4c7.3,0.6,14.5,1.3,21.8,1.9c5.8,0.5,11.6,1.1,17.5,1.2c6.5,0.2,13-0.2,19.5-0.3c5,0,10.1-0.3,15.1,0.4  c4.6,0.6,9.2,2.2,13.7,3.4c0.7,0.2,1.4,0.7,1.9,1.3c3.3,3.7,6.6,7.4,9.9,11.2c2.5,2.8,3.9,3.2,6.9,1c2.8-2,5.1-4.6,7.7-6.9  c2.1-1.9,4.1-4,6.3-5.8c1.7-1.4,3.7-1.8,6-1.6c8.4,0.7,16.8,1.4,25.2,1.7c5,0.2,9.9-0.2,14.9-0.3c7.5-0.2,15-0.6,22.5-0.8  c2.2-0.1,4.6-0.3,6.5,0.4c1.7,0.7,3.2,1.1,4.9,1.1c1.9-0.1,3.7-0.3,5.6-0.3c8.8,0,17.7,0.1,26.5-0.1c8-0.2,15.9-0.8,23.8-1.1  c5-0.2,9.9-0.3,14.9-0.4c4.8,0,9.6,0.5,14.3,0.2c12.2-0.8,24.4-2.2,36.7-1.9c4.8,0.1,9.5-0.5,14.3-0.8c6.9-0.4,13.9-0.8,20.8-1.3  c8.2-0.5,16.5-0.9,24.6,0.9c6.9,1.5,13.7,2,20.7,2.1c5.3,0.1,10.6,1,15.8,1.3c4.5,0.2,9,0,13.5,0c-0.1-0.5-0.2-0.8-0.2-1.3  c0.9,0,1.6,0,2.3,0c4.8,0.3,9.5,1,14.3,1c11.5,0.2,23.1,0.1,34.6,0.1c0.9,0,1.7,0,2.6,0.1c6.3,0.5,12.7,1.4,19,1.4  c6-0.1,12-1.2,18-1.7c5.7-0.4,11.2-1.6,16.3-4.2c2-1.1,4.1-1.7,6.4-1.6c2.2,0,4.5-0.3,6.7-0.4c8.4-0.3,16.8-0.5,25.3-0.7  c3.9-0.1,7.8,0.2,11.7,0.3c4.1,0.1,8.1-0.1,12.2,0c2.9,0.1,5.8,0.3,8.7,0.6c8.4,0.8,16.9,2,25.3,2.5c5.3,0.3,10.6-0.7,15.9-0.7  c10.9,0.1,21.9,0.5,32.8,0.8c1.8,0,2.9,0.8,3.7,2.5c3,6,6.1,11.9,9.3,17.8c1.3,2.3,3,2.6,4.6,0.4c1.2-1.6,1.9-3.5,2.6-5.3  c1-2.7,1.7-5.4,2.8-8.1c0.8-2,2.1-3.9,4.5-4c2.3-0.2,4.6,0,7,0c6.8,0.1,13.5,0.1,20.3,0.2c6.2,0.1,12.5-0.2,18.7,0.4  c7.3,0.7,14.4,2.6,21.9,2.2c10.1-0.4,20.3-0.1,30.4-0.2c2.8,0,5.7-0.6,8.5-0.7c15.4-0.4,30.8-0.8,46.2-1.2  c6.2-0.2,12.5-0.3,18.7-0.4c8-0.2,15.9-0.2,23.9-0.5c4-0.2,7.9-0.8,11.9-1.2c0.9-0.1,2-0.3,1.3-2.2c3.3-0.1,6.3-0.3,9.3-0.3  c2.4,0,4.7,0.6,7.1,0.6c3.6,0,7.3-0.2,10.9-0.4c6.1-0.4,12.2-1.1,18.3-1.2c6.4-0.2,12.8-0.5,19.1,0.3c10.3,1.4,20.7,2.1,31.1,2.5  c8.1,0.3,16.2,0.8,24.2,1.3c9.3,0.5,18.7,1.1,28,1.5c4.6,0.2,9.3,0,14,0.1c1.5,0,2.9,0.7,4.3,1c1.6,0.3,3.2,0.8,4.8,0.8  c5.4,0.2,10.7,0.1,16.1,0.2c1.9,0,3.8,0.2,5.8,0.4c4.6,0.6,9.2,1.1,13.5-1.5c0.7-0.4,1.5-0.6,2.3-0.7c5.3-0.7,10.5-1.5,15.8-2  c13.2-1.1,26.4-2.1,39.6-3.2c4.6-0.4,9.2-0.8,13.9-1.1c6.4-0.3,12.9-0.4,18.9,2.6c5.3,2.7,10.7,4.8,16.8,5.2  c6.5,0.4,12.3,3.6,18,6.6c2,1,3.2,1,4.8-0.7c3.6-3.5,7.4-6.9,11.3-10.1c3.9-3.3,8.2-5.6,13.6-4.9c3.2,0.4,6.5,0.3,9.7,0.4  c1.9,0,3.8-0.3,5.8-0.3c8.3,0.1,16.6,0.1,24.9,0.4c6.4,0.2,12.8,0.7,19.3,1.3c11.3,0.9,22.6,2.1,33.9,1.6c7.7-0.3,15.5-0.2,23.3,0  c6,0.2,12,1,18.1,1.2c5.6,0.2,11.3,0,16.9-0.4c4.2-0.3,8.3-1.6,12.6-2c5.9-0.6,11.6,1.3,17.2,3c6.7,2,13.5,3.5,20.6,2.9  c1.8-0.1,3.6-0.3,5.4-0.4c8.6-0.3,17.1-0.6,25.7-0.8c2.2,0,4.5,0.2,6.7,0.5c1.3,0.2,2.5,0.9,3.7,1c2.4,0.1,4.8-0.3,7.1-0.3  c9,0,17.9,0.1,26.9-0.1c7.6-0.2,15.2-0.8,22.8-1.1c5.7-0.2,11.4,0,17.1-0.1c7.4-0.2,14.7-0.5,22.1-0.8c4.4-0.2,8.9-0.5,13.3-0.9  c4.7-0.4,9.2-0.8,13.2,2.6c2.3,1.9,5,1.5,7.5,0c1-0.6,1.8-1.4,2.8-1.8c1.9-0.7,3.9-1.6,6-1.7c6.3-0.6,12.7-0.9,19-1.3  c8.2-0.6,16.5-0.9,24.6,0.9c6.9,1.5,13.7,2.1,20.7,2c3,0,5.9,0.5,8.9,0.7c5.2,0.3,10.3,0.6,15.5,0.9c2.2,0.2,3.9-0.4,5.3-2.1  c0.4-0.5,1-1,1.6-1c3.8-0.2,7.7-0.3,11.5-0.3c6.9-0.1,13.8,0,20.7-0.1c3,0,6.1-0.6,8.5,2.1c1.6,1.7,3.9,1.5,6,1.3  c1.6-0.1,3.3-0.2,5-0.1c6.4,0.4,12.8,1.4,19.2,1.3c5.9,0,11.8-1.2,17.8-1.7c5.2-0.4,10.3-1.2,15-3.7c3.1-1.7,6.5-2.3,9.9-2.4  c8.2-0.3,16.3-0.7,24.5-0.8c7-0.1,14.1,0.2,21.1,0.3c3.4,0,6.8,0,10.2,0.1c2.2,0.1,4.4,0.3,6.5,0.6c10.4,1.6,20.8,2.8,31.3,2.5  c3.5-0.1,7-0.8,10.5-0.8c10.8,0.1,21.6,0.5,32.4,0.8c1,0,2,0.6,2.9,1c1,0.4,2,1.1,3,1.3c6.9,0.8,13.8,1.6,20.8,0.9  c2.6-0.2,5.2,0,7.8,0.1c6.8,0.1,13.5,0.1,20.3,0.2c6.2,0.1,12.5-0.1,18.7,0.4c5.5,0.4,10.9,1.7,16.3,2.1c4.8,0.4,9.1,1.7,13.1,4.3  c1,0.7,2.1,1.2,3,1.9c5.8,4.3,12.2,5.8,19.3,5.4c1.5-0.1,2.4-0.6,2.9-1.9c0.8-2.4,1.7-4.8,2.6-7.1c1.2-3.2,1.4-3.3,4.7-3.4  c11.5-0.2,23.1-0.4,34.6-0.8c12.5-0.3,24.9-0.9,37.4-1.2c5.2-0.1,10.4,0.1,15.5-0.1c4-0.2,7.9-0.7,11.9-1.2c0.7-0.1,1.3-0.8,2-1.3  c-0.1-0.3-0.2-0.6-0.3-0.9c2.9-0.1,5.8-0.4,8.7-0.4c2.8,0,5.7,0.7,8.5,0.6c5.6-0.1,11.1-0.5,16.7-0.8c3.8-0.2,7.7-0.7,11.5-0.8  c6.3-0.1,12.7-0.5,18.9,0.4c10.1,1.4,20.2,2.1,30.3,2.5c8.3,0.3,16.7,0.8,25,1.3c10.4,0.5,20.8,1.1,31.2,1.5  c3.6,0.2,7.3-0.1,11,0.1c1.4,0.1,2.8,0.7,4.2,1c1.7,0.3,3.3,0.8,5,0.9c5.4,0.2,10.7,0.1,16.1,0.3c3.6,0.1,7.1,0.7,10.7,0.8  c1.9,0.1,3.8-0.3,5.6-0.7c3.9-0.9,7.8-2.4,11.7-2.9c10.7-1.2,21.4-2,32.1-2.9c10.4-0.8,20.8-1.7,31.1-2.4c3.2-0.2,6.5,0.1,9.8,0.1  c3.4,0,6.8,0,10.1,0c6,0,11.9-0.4,17.8,0.2c5.4,0.6,10.8,2.2,16.2,3.4c1.6,0.4,3.2,0.2,4.8-0.4c7.5-2.7,15.2-4.9,23.3-4.6  c3.2,0.1,6.5,0.3,9.7,0.3c2.1,0,4.2-0.3,6.4-0.3c13-0.3,26,0.1,39,1.2c5.4,0.5,10.8,1.1,16.2,1.4c6.6,0.4,13.2,0.7,19.9,0.9  c3.5,0.1,7-0.2,10.5-0.4c1.3-0.1,2.6-0.3,4-0.3c5.7-0.1,11.5-0.5,16.1,3.9c0.6,0.5,1.3,1,1.9,1.4c2.6,1.8,5.3,3.1,8.5,1.5  c0.5-0.3,1.6,0,2.2,0.3c1.1,0.7,2,0.5,2.9-0.2c1.6-1.2,3-2.7,4.7-3.7c1.2-0.7,2.7-1.1,4.1-1.2c1.8-0.1,3.7,0.2,5.6,0.3  c6.6,0.4,13.2,0.7,19.9,1.1c8.5,0.5,16.9,1.3,25.4,1.6c4.8,0.2,9.7-0.2,14.5-0.3c7.5-0.2,15-0.6,22.5-0.8c2.2-0.1,4.6-0.3,6.5,0.4  c1.7,0.7,3.2,1.1,4.9,1.1c1.9-0.1,3.8-0.3,5.8-0.3c8.9,0,17.8,0.1,26.7-0.1c7.8-0.2,15.6-0.8,23.4-1.1c5-0.2,9.9-0.3,14.9-0.4  c4.8,0,9.6,0.5,14.3,0.2c12.2-0.8,24.4-2.2,36.7-1.9c4.8,0.1,9.5-0.5,14.3-0.8c6.9-0.4,13.9-0.8,20.8-1.3  c8.2-0.5,16.5-0.9,24.6,0.9c6.9,1.5,13.7,2,20.7,2.1c5.3,0.1,10.6,1,15.8,1.3c4.5,0.2,9,0,13.5,0c-0.1-0.5-0.2-0.8-0.2-1.3  c0.9,0,1.6,0,2.3,0c4.8,0.3,9.5,1,14.3,1c11.5,0.2,23.1,0.1,34.6,0.1c0.9,0,1.7,0,2.6,0.1c6.4,0.5,12.8,1.4,19.2,1.4  c6-0.1,12-1.3,18-1.7c6.1-0.4,11.8-2,17.2-4.6c0.4-0.2,0.8-0.2,1.5-0.4c0.1,1.1,0.2,2,0.2,2.9c0,23.4,0,46.8,0,70.2  C2439.9,105.7,2440,106.9,2440,108z"></path></g></svg>