<svg xmlns="http://www.w3.org/2000/svg" viewBox="0 0 841.92 49.82"><g id="Layer_2" data-name="Layer 2"><g id="Layer_1-2" data-name="Layer 1"><path d="M0,49V0H841.92V49c-1.6-.71-3.17-1.48-4.81-2.1a17.64,17.64,0,0,0-3.64-1c-2.8-.39-5.62-.63-8.43-1a35.93,35.93,0,0,0-5.67-.73c-4,.15-8,.68-12,.93-2.23.14-4.47,0-6.7,0-2.55.05-5.1.2-7.66.22-3.87,0-7.75-.06-11.62,0-2.87.08-5.72.4-8.58.59a9.9,9.9,0,0,1-1.21-.06l0-.23,1.24-.72c-2.77,0-5.29-.2-7.76,0-5.44.52-10.86,1.28-16.35,1.12a18.8,18.8,0,0,0-5.45.59c-6.24,1.68-12.57,1.54-18.92,1.16-3.89-.24-7.8-.85-11.68-.75s-7.67-.87-11.53-.57a16,16,0,0,1-2.39.13c-4.85-.28-9.7-.6-14.56-.91-3.45-.21-6.94-.79-10.36-.55a93,93,0,0,1-16-.29c-3.12-.33-6.27-.44-9.41-.51-2.31-.05-4.63.22-6.94.19-6-.06-12-.21-18-.3-.32,0-.88.11-.93.3-.3.94-1,.72-1.65.69-5-.23-10-.47-15.06-.65-1.36,0-2.72.13-4.07.09-2.11-.06-4.22-.33-6.33-.32a151.07,151.07,0,0,0-17.51,1.23c-5.57.67-11.23.57-16.85.81-2.9.12-5.81.19-8.71.38-3.3.22-6.59.69-9.9.78-3.94.11-7.91.06-11.85-.13-9.41-.45-18.73.73-28.08,1.4-4.49.33-9,.68-13.49.74-5.07.07-10.13-.21-15.2-.27-2,0-4.06.16-6.1.21-4.59.12-9.15-.29-13.73-.54-5.38-.31-10.79,0-16.18-.09-4.71,0-9.44-.49-14.13-.26-9.38.46-18.61-1.26-27.93-1.57-5.89-.2-11.76-.94-17.62-1.55-2.69-.28-5.39-.54-7.88-1.83a5.63,5.63,0,0,0-2.91-.71c-5.53.51-11,.9-16.6.89-1.77,0-3.89-.56-5.45,1.06-.09.09-.31,0-.47,0-6,.33-11.95-.28-17.91.54-2.43.33-4.93.06-7.39.21-4.22.24-8.43.66-12.65.88s-8.28.26-12.43.4c-1.43,0-2.87.07-4.29.23-4.74.53-9.49,1.56-14.23,1.58-6.44,0-12.89-.72-19.33-1.15-3.22-.22-6.42-.52-9.65.15a14,14,0,0,1-6.93-.63l1.3-.57c-.69-.15-1.15-.26-1.61-.34a73.33,73.33,0,0,0-12.39-.86c-4.81,0-9.63-.29-14.45-.42-1.2,0-2.4.11-3.59.07-5.9-.22-11.8-.53-17.7-.68-5.12-.13-10.24-.08-15.35-.13a11.57,11.57,0,0,1-1.66-.2,16.26,16.26,0,0,0-2.37-.39c-1.63,0-3.26.22-4.9.2-6.15-.08-12.3-.28-18.45-.29a32.11,32.11,0,0,0-6.85.7,50.18,50.18,0,0,1-16.16,1.09,68.87,68.87,0,0,0-8.13-.23c-3.19,0-6.39.42-9.57.27a79.08,79.08,0,0,0-14.43.66c-.37,0-.94.29-1,.57-.23.72-.68.73-1.28.76-3.79.17-7.57.41-11.36.54-3.5.11-7,.21-10.5.13-2.26-.05-4.52-.67-6.77-.64a119.25,119.25,0,0,0-19,1.7,29.12,29.12,0,0,1-4.76.4c-4.83.08-9.66.07-14.49.12-2.15,0-4.3.14-6.45.1-3.71-.07-7.42-.2-11.12-.36C4.6,49.34,2.3,49.13,0,49Z"></path></g></g></svg>